<svg xmlns="http://www.w3.org/2000/svg" viewBox="0 0 4989.77 3017.69"><defs><clipPath id="a"><rect width="355.76" height="441.77" x="944.61" y="1240.67" fill="none" transform="rotate(-9.65 1122.639 1461.71)"/></clipPath></defs><g data-name="1"><g data-name="1-14"><g data-name="1"><path fill="#fcd9df" d="M742,2683s-462.25-120.18-416-462.25,240.37-388.3,83.21-647.16S94.86,1055.89,261.28,778.53,464.67,519.67,705,297.79s795.08,147.92,1146.4,37,360.17-240.38,748.47-171c397.55,71,527.36,355.94,915.65,217.26s573.2-323.58,841.31-184.9,471.5,453,397.54,739.61-258.86,305.09-138.67,499.24,212.63,101.7,175.65,508.48-382.13,770.43-567,788.92S1065.6,2784.73,742,2683Z" data-name="14"/><g data-name="13"><path fill="#e0d1fc" d="M1166.2,2346.28c-18,19.5-42.1,31.77-70.26,31.77-102.75,0-175.27-145.05-356.6-193.41S358.56,2003.32,437.14,1955s214.91-85,113.5-154.32S292.07,1658.8,334.39,1610.45c37.6-43,147.34-191,64.92-333.77-34.5-59.74-34.69-133.56,1.62-192.22,16.82-27.18,40.33-52.57,73.22-69.9,18.71-9.87,40.46-17.13,65.74-20.61,175.28-24.18,102.75,265.93,211.53,314.29s169.25-126.93,199.47,30.22-18.14,374.74,48.35,332.42,139-145.05,139,6-95.56,372.18,6.62,455.05C1219,2192.14,1213.89,2294.61,1166.2,2346.28Z"/><path fill="#d4c5f9" d="M1166.2,2346.28c-108.78-97.37-311.71-294.43-311.71-409.45,0-157.15-161.17-318.32-282-491.59-96.25-138-100.54-350-98.29-430.68,18.71-9.87,40.46-17.13,65.74-20.61,175.28-24.18,102.75,265.93,211.53,314.29s169.25-126.93,199.47,30.22-18.14,374.74,48.35,332.42,139-145.05,139,6-95.56,372.18,6.62,455.05C1219,2192.14,1213.89,2294.61,1166.2,2346.28Z"/><path fill="#9d87d8" d="M1240.33,2548c-18-25.2-35.45-50.25-52.94-75.49s-34.8-50.5-52-75.87q-51.65-76.08-102-153t-99.25-154.71q-48.84-77.87-96.15-156.65-47.1-78.91-92.27-159-44.89-80.19-87.08-161.84c-27.93-54.52-54.53-109.73-79.3-165.74s-47.57-112.91-66-171.22c20.94,57.46,46.2,113.15,73.16,167.9s55.88,108.53,86,161.59S734,1709.44,766.1,1761.36q48.33,77.73,98.6,154.21T967,2067.32Q1019,2142.65,1072.37,2217t107.9,147.78q27.24,36.74,54.87,73.16c18.39,24.25,37,48.56,55.52,72.36Z"/><path fill="#f4f3ff" d="M802.11,1574.18s-87.64-176.28-6-191.4S802.11,1574.18,802.11,1574.18Z"/><path fill="#f4f3ff" d="M962.28,1920.71s-51.37-117.86,42.31-139S962.28,1920.71,962.28,1920.71Z"/><path fill="#f4f3ff" d="M551.28,1688s-154.12-12.09-111.82-60.44S551.28,1688,551.28,1688Z"/><path fill="#f4f3ff" d="M738.65,2041.59s-199.46-3-145.06-39.28S738.65,2041.59,738.65,2041.59Z"/></g><g data-name="12"><path fill="#b09cdb" d="M3716.94,2233.81c180.82-199.8,322.18-421.95,420.15-660.28a2184.58,2184.58,0,0,0,151.39-598.59c37.59-351.71-22.56-599.89-23.17-602.36l-13.12,3.25c.61,2.45,60.23,248.76,22.79,598.24-34.55,322.38-161.14,801-568.07,1250.67Z"/><path fill="#b09cdb" d="M4291.08,720.71,4175.35,593.35s-92.58-104.2-122.67-106.52S4159.13,688.27,4291.08,720.71Z"/><path fill="#b09cdb" d="M4297.24,790.94S4447,642.81,4437.75,524,4295.72,695.25,4297.24,790.94Z"/><path fill="#b09cdb" d="M4278.69,892.8s-58.61-155.9-140.41-149.74S4220,883.53,4278.69,892.8Z"/><path fill="#b09cdb" d="M4275.57,1017.82S4430,763.19,4463.91,854.26,4275.57,1017.82,4275.57,1017.82Z"/><path fill="#b09cdb" d="M4255.48,1155.18s-60.15-197.57-111.1-129.67S4255.48,1155.18,4255.48,1155.18Z"/><path fill="#b09cdb" d="M4226.13,1258.58s128.14-175.92,152.82-103.37S4226.13,1258.58,4226.13,1258.58Z"/><path fill="#b09cdb" d="M4190.6,1380.51s-35.47-140.46-80.23-129.67S4156.64,1366.61,4190.6,1380.51Z"/><path fill="#b09cdb" d="M4189,1446.87s106.52-95.66,140.46-58.61S4189,1446.87,4189,1446.87Z"/><path fill="#b09cdb" d="M4127.27,1562.62s-37-143.55-77.14-123.5S4127.27,1562.62,4127.27,1562.62Z"/><path fill="#b09cdb" d="M4108.73,1625.89s172.89-86.39,155.9-20S4108.73,1625.89,4108.73,1625.89Z"/><path fill="#b09cdb" d="M4040.8,1737s-15.4-138.91-75.61-105S4040.8,1737,4040.8,1737Z"/><path fill="#b09cdb" d="M4030,1792.56s92.62-69.43,126.57-24.66S4030,1792.56,4030,1792.56Z"/><path fill="#b09cdb" d="M3959,1897.5s9.29-128.1-54-115.77S3959,1897.5,3959,1897.5Z"/><path fill="#b09cdb" d="M3938.88,1950s157.45-78.68,159-29.29S3938.88,1950,3938.88,1950Z"/><path fill="#b09cdb" d="M3880.21,2017.87s-29.28-166.7-71-126.58S3880.21,2017.87,3880.21,2017.87Z"/><path fill="#b09cdb" d="M3830.81,2081.13s200.65-54,155.88,10.85S3830.81,2081.13,3830.81,2081.13Z"/></g><g data-name="11"><path fill="#e0d1fc" d="M4256.92,2354.47c-4.19,135.77-364.32,222.47-364.32,222.47l-1.29-20.37s174.27-34,122.24-209.71c-9.67-32.67-20.57-62.43-31.14-89.67-46.25-119.22-86-190,12.58-244.08,83.79-46,181.5-123.49,223.95-201,10.93-20,18.21-39.93,20.62-59.36l77.78.88-83.6-53.54c-24-102.13,11.86-239.88,127.06-249.62,119.53-10.13,127.33-210,241.31-186.58,94.7,19.5,114.55,139.08,80.33,247.37a342.33,342.33,0,0,1-27.41,63.76c-66.6,119.27-252.59,210.29-218.75,341.1a746.31,746.31,0,0,1,21.84,131.5c6.46,89.73-6.47,171.46-49.11,205.15C4345.7,2302.83,4261.12,2218.7,4256.92,2354.47Z"/><path fill="#d4c5f9" d="M3846.92,2577.12l-1.6-14.93c100-10.71,162.2-56.59,196.71-93.2,43.19-45.81,67.49-102.9,66.65-156.63-.81-51.72,13.93-96.91,46.38-142.2,28-39,66.88-74.9,116.7-116.71,56.6-47.5,65.84-137.64,75.62-233.08,5.69-55.48,11.57-112.85,26.89-166.17,22-76.51,76.7-155.44,118.73-208.17,45.38-56.94,86.2-96.53,86.61-96.93l10.43,10.8c-.4.39-40.64,39.43-85.42,95.64-41.13,51.63-94.63,128.72-115.92,202.81-14.95,52-20.76,108.72-26.38,163.55-10.1,98.55-19.64,191.64-80.9,243-90.37,75.84-159.36,142.2-157.73,247.17.9,57.61-24.88,118.54-70.73,167.17a304.69,304.69,0,0,1-87.15,64.05C3929.7,2561.18,3889.7,2572.54,3846.92,2577.12Z"/><path fill="#d4c5f9" d="M3982.41,2257.19c-46.25-119.22-86-190,12.58-244.08,83.79-46,181.5-123.49,223.95-201,9.39,14.59,14.47,39.51-2.72,80.86-34.4,82.71-121.63,78-135.74,137.7s51.77,50.42,5.51,127.49C4056.7,2207,4021.43,2250.54,3982.41,2257.19Z"/><path fill="#d4c5f9" d="M4458.12,2047.65c-67.58-33.3-90-92.16-59.49-140.62,36-57.25-19.4-84.42-8.7-137.51s50.84-25,89.71-77.27,35.81-100.7,89.68-118.17c43.63-14.15,95.13-49.77,113.12-62.79a342.33,342.33,0,0,1-27.41,63.76c-66.6,119.27-252.59,210.29-218.75,341.1A746.31,746.31,0,0,1,4458.12,2047.65Z"/><path fill="#d4c5f9" d="M4300.67,2116.48s-89,27.37-101.48,93.35,128.55,31.5,158.11-26.62S4300.67,2116.48,4300.67,2116.48Z"/></g><g data-name="10"><path fill="#69dfd4" d="M4178.87,1907.6v766.05a34.15,34.15,0,0,1-34.15,34.15h-436a34.15,34.15,0,0,1-34.15-34.15V1907.6Z"/><path fill="#d2fffa" d="M3755.29,2552.79l143.77,23.87a55,55,0,0,1-18,108.42l-143.78-23.87a55,55,0,1,1,18-108.42Z"/><path fill="#a9ede3" d="M3755.29,2552.79l64.08,10.64c-24.44,54.94-21.64,90.74-18.28,108.37l-63.8-10.59a55,55,0,1,1,18-108.42Z"/><path fill="#d2fffa" d="M3753.41,2483.69l86.74-117.11a55,55,0,0,1,88.32,65.41l-86.75,117.11a54.95,54.95,0,1,1-88.31-65.41Z"/><path fill="#a9ede3" d="M3753.41,2483.69l38.66-52.2c37.78,46.79,70.92,60.6,88.15,65.64l-38.5,52a54.95,54.95,0,1,1-88.31-65.41Z"/><path fill="#d2fffa" d="M3943.83,2549.83l144,22.64A55,55,0,0,1,4070.73,2681l-144-22.64a55,55,0,1,1,17.07-108.57Z"/><path fill="#a9ede3" d="M3943.83,2549.83l64.17,10.09c-24,55.15-20.86,90.92-17.35,108.52l-63.89-10a55,55,0,1,1,17.07-108.57Z"/><rect width="302.04" height="517.41" x="3876.72" y="2054.69" fill="#fff"/><path d="M4178.87,1931.25v742.18a34.15,34.15,0,0,1-34.15,34.15H3877.57c85.29-61,129.87-191.85,100.81-295.92-31.51-112.93,47.29-123.44,55.16-267.89S3897,1933.65,3897,1933.65Z" style="mix-blend-mode:multiply" fill="#69dfd4"/><rect width="570.81" height="129.57" x="3636.15" y="1821.81" fill="#d2fffa" rx="28.54"/><rect width="266.15" height="33.27" x="3912.69" y="2073.95" fill="#0c1e42"/><circle cx="4013.84" cy="2268.74" r="118.19" fill="#f95d6c" transform="rotate(-45 4013.847 2268.75)"/><rect width="30.2" height="173.35" x="4005.27" y="2183.39" fill="#fff"/><rect width="30.2" height="173.35" x="4005.27" y="2183.39" fill="#fff" transform="rotate(90 4020.37 2270.06)"/><rect width="185.16" height="21.01" x="3991.52" y="2428.96" fill="#0c1e42"/><rect width="185.16" height="21.01" x="3991.52" y="2473.61" fill="#0c1e42"/><rect width="505.59" height="5.14" x="3678.97" y="1910.29" style="mix-blend-mode:multiply" fill="#69dfd4"/><rect width="505.59" height="5.14" x="3638.26" y="1876.15" style="mix-blend-mode:multiply" fill="#69dfd4"/><rect width="505.59" height="5.14" x="3689.48" y="1840.69" style="mix-blend-mode:multiply" fill="#69dfd4"/></g><g data-name="9"><rect width="724.5" height="440.38" x="749.28" y="387.53" fill="#f7f5ff" transform="rotate(-1.15 1110.503 607.061)"/><rect width="740.96" height="105.63" x="735.65" y="354.2" fill="#69dfd4" transform="rotate(-1.15 1105.04 406.707)"/><path d="M736.78,467.25s52.87-55.83,169.63-44.19,199.51,12.32,266.37-24,171.39,4.72,222.36-10.29,80.34-42,80.34-42l2.12,105.61Z" style="mix-blend-mode:multiply" fill="#69dfd4"/><path fill="#1d4d95" d="M841.57,427.34A24.86,24.86,0,1,1,816.22,403,24.86,24.86,0,0,1,841.57,427.34Z"/><path fill="#1d4d95" d="M963.48,424.9a24.85,24.85,0,1,1-25.34-24.35A24.84,24.84,0,0,1,963.48,424.9Z"/><path fill="#1d4d95" d="M1085.4,422.45a24.86,24.86,0,1,1-25.35-24.35A24.85,24.85,0,0,1,1085.4,422.45Z"/><path fill="#1d4d95" d="M1207.32,420A24.85,24.85,0,1,1,1182,395.66,24.85,24.85,0,0,1,1207.32,420Z"/><circle cx="1304.38" cy="418.06" r="24.85" fill="#1d4d95" transform="rotate(-29.59 1304.573 418.074)"/><path fill="#1d4d95" d="M1451.15,415.12a24.85,24.85,0,1,1-25.35-24.35A24.85,24.85,0,0,1,1451.15,415.12Z"/><rect width="81.06" height="52.81" x="772.31" y="507.68" fill="#fff" transform="rotate(-1.15 812.283 533.814)"/><rect width="81.06" height="52.81" x="873.01" y="505.66" fill="#fff" transform="rotate(-1.15 912.453 531.83)"/><rect width="81.06" height="52.81" x="973.71" y="503.64" fill="#fff" transform="rotate(-1.15 1013.126 529.352)"/><rect width="81.06" height="52.81" x="1074.4" y="501.62" fill="#fff" transform="rotate(-1.15 1113.794 527.373)"/><rect width="81.06" height="52.81" x="1171.12" y="499.68" fill="#fff" transform="translate(-10.31 24.4)"/><rect width="81.06" height="52.81" x="1271.82" y="497.66" fill="#fff" transform="translate(-10.25 26.43)"/><rect width="81.06" height="52.81" x="1372.52" y="495.64" fill="#e0d1fc" transform="rotate(-1.15 1411.812 521.395)"/><rect width="81.06" height="52.81" x="773.75" y="579.12" fill="#fff" transform="rotate(-1.15 813.561 605.078)"/><rect width="81.06" height="52.81" x="874.44" y="577.1" fill="#fff" transform="rotate(-1.15 914.23 603.098)"/><rect width="81.06" height="52.81" x="975.14" y="575.08" fill="#fff" transform="rotate(-1.15 1014.897 601.119)"/><rect width="81.06" height="52.81" x="1075.84" y="573.06" fill="#e0d1fc" transform="rotate(-1.15 1115.565 599.14)"/><rect width="81.06" height="52.81" x="1172.56" y="571.12" fill="#fff" transform="rotate(-1.15 1212.247 597.12)"/><rect width="81.06" height="52.81" x="1273.25" y="569.1" fill="#fff" transform="translate(-11.68 26.46)"/><rect width="81.06" height="52.81" x="1373.95" y="567.08" fill="#fff" transform="translate(-11.62 28.49)"/><rect width="81.06" height="52.81" x="775.18" y="650.56" fill="#fff" transform="rotate(-1.15 814.84 676.341)"/><rect width="81.06" height="52.81" x="875.87" y="648.54" fill="#fff" transform="rotate(-1.15 915.507 674.362)"/><rect width="81.06" height="52.81" x="976.57" y="646.52" fill="#fff" transform="rotate(-1.15 1016.175 672.383)"/><rect width="81.06" height="52.81" x="1077.27" y="644.5" fill="#fff" transform="rotate(-1.15 1116.843 670.403)"/><rect width="81.06" height="52.81" x="1173.99" y="642.56" fill="#fff" transform="rotate(-1.15 1213.525 668.384)"/><rect width="81.06" height="52.81" x="1274.69" y="640.54" fill="#fff" transform="rotate(-1.15 1314.193 666.405)"/><rect width="81.06" height="52.81" x="1375.38" y="638.52" fill="#fff" transform="rotate(-1.15 1414.86 664.426)"/><rect width="81.06" height="52.82" x="776.61" y="722" fill="#fff" transform="rotate(-1.15 816.61 748.108)"/><rect width="81.06" height="52.82" x="877.31" y="719.98" fill="#fff" transform="rotate(-1.15 917.283 745.63)"/><rect width="81.06" height="52.82" x="978" y="717.96" fill="#e0d1fc" transform="rotate(-1.15 1017.453 743.646)"/><rect width="81.06" height="52.82" x="1078.7" y="715.94" fill="#fff" transform="rotate(-1.15 1118.12 741.667)"/><path fill="#f0ebff" d="M830,323.22l1.93,96.29a16.3,16.3,0,0,1-32.6.66l-1.93-96.3a16.3,16.3,0,0,1,11.06-15.77,15.91,15.91,0,0,1,4.91-.85,16.31,16.31,0,0,1,16.63,16Z"/><path d="M830,323.22l1.93,96.29a16.31,16.31,0,0,1-16,16.63c6-10,1.57-24.89-4-43.93s4.28-18.74,8-40.57c2.85-16.71-6.81-35.6-11.49-43.54a15.91,15.91,0,0,1,4.91-.85,16.31,16.31,0,0,1,16.63,16Z" style="mix-blend-mode:multiply" fill="#f0ebff"/><path fill="#f0ebff" d="M952.14,320.77l1.93,96.29a16.31,16.31,0,0,1-32.61.66l-1.93-96.3a16.32,16.32,0,0,1,11.06-15.77,16,16,0,0,1,4.92-.85,16.31,16.31,0,0,1,16.63,16Z"/><path d="M952.14,320.77l1.93,96.29a16.31,16.31,0,0,1-16,16.63c6-10,1.57-24.89-4-43.93s4.28-18.74,8-40.57c2.84-16.71-6.82-35.6-11.5-43.54a16,16,0,0,1,4.92-.85,16.31,16.31,0,0,1,16.63,16Z" style="mix-blend-mode:multiply" fill="#f0ebff"/><path fill="#f0ebff" d="M1074.31,318.32l1.93,96.29a16.3,16.3,0,0,1-32.6.66l-1.93-96.3a16.3,16.3,0,0,1,32.6-.65Z"/><path d="M1074.31,318.32l1.93,96.29a16.31,16.31,0,0,1-16,16.63c6-10,1.57-24.89-4-43.93s4.28-18.74,8-40.57c2.85-16.71-6.81-35.6-11.49-43.54a16.32,16.32,0,0,1,21.54,15.12Z" style="mix-blend-mode:multiply" fill="#f0ebff"/><path fill="#f0ebff" d="M1196.48,315.87l1.94,96.29a16.31,16.31,0,1,1-32.61.65l-1.93-96.29a16.3,16.3,0,1,1,32.6-.65Z"/><path d="M1196.48,315.87l1.94,96.29a16.31,16.31,0,0,1-16,16.63c6-10,1.57-24.89-4-43.93s4.28-18.74,8-40.57c2.84-16.71-6.82-35.6-11.5-43.54a16.31,16.31,0,0,1,21.54,15.12Z" style="mix-blend-mode:multiply" fill="#f0ebff"/><path fill="#f0ebff" d="M1318.66,313.42l1.93,96.29a16.3,16.3,0,1,1-32.6.65l-1.93-96.29a16.3,16.3,0,0,1,32.6-.65Z"/><path d="M1318.66,313.42l1.93,96.29a16.31,16.31,0,0,1-16,16.63c6-10,1.57-24.89-4-43.93s4.28-18.74,8-40.57c2.85-16.71-6.81-35.6-11.49-43.54a16.32,16.32,0,0,1,21.54,15.12Z" style="mix-blend-mode:multiply" fill="#f0ebff"/><path fill="#f0ebff" d="M1440.83,311l1.94,96.29a16.31,16.31,0,1,1-32.61.65l-1.93-96.29a16.3,16.3,0,1,1,32.6-.65Z"/><path d="M1440.83,311l1.94,96.29a16.31,16.31,0,0,1-16,16.63c6-10,1.57-24.89-4-43.93s4.28-18.74,8-40.57c2.84-16.72-6.82-35.6-11.5-43.54A16.31,16.31,0,0,1,1440.83,311Z" style="mix-blend-mode:multiply" fill="#f0ebff"/><rect width="81.06" height="52.81" x="775.18" y="650.56" fill="#fff" transform="rotate(-1.15 814.84 676.341)"/><rect width="81.06" height="52.81" x="875.87" y="648.54" fill="#e0d1fc" transform="rotate(-1.15 915.507 674.362)"/><rect width="81.06" height="52.81" x="976.57" y="646.52" fill="#fff" transform="rotate(-1.15 1016.175 672.383)"/><rect width="81.06" height="52.81" x="1077.27" y="644.5" fill="#fff" transform="rotate(-1.15 1116.843 670.403)"/><rect width="81.06" height="52.81" x="1173.99" y="642.56" fill="#fff" transform="rotate(-1.15 1213.525 668.384)"/><rect width="81.06" height="52.81" x="1274.69" y="640.54" fill="#fff" transform="rotate(-1.15 1314.193 666.405)"/><rect width="81.06" height="52.81" x="1375.38" y="638.52" fill="#e0d1fc" transform="rotate(-1.15 1414.86 664.426)"/><polygon fill="#69dfd4" points="780.93 576.68 823.86 625.53 887.56 548.13 870.29 539.15 823.26 596.03 792.91 554.68 780.93 576.68"/></g><g data-name="8"><path fill="#2469ce" d="M1857.23,894.63,2101,2328.36a86,86,0,0,1-70.38,99.22L1090.25,2587.5A86,86,0,0,1,991,2517.12L747.22,1083.39a86,86,0,0,1,70.38-99.22L1758,824.25A86,86,0,0,1,1857.23,894.63Z"/><path fill="#fff" d="M1813.75,987.61,2029.27,2255a86,86,0,0,1-70.35,99.18l-825.23,140.33a86.07,86.07,0,0,1-99.21-70.34L819,1156.77a86,86,0,0,1,70.38-99.22l825.23-140.33A86,86,0,0,1,1813.75,987.61Z"/><path d="M1857.23,894.63,2101,2328.36a86,86,0,0,1-70.38,99.22L1090.25,2587.5a86,86,0,0,1-75.39-24.11c16.8-24.06,37.49-51,59.36-80.45a85.46,85.46,0,0,0,59.47,11.55l825.23-140.33a86,86,0,0,0,70.35-99.18L1813.75,987.61a86,86,0,0,0-99.18-70.39l-6.65,1.13c-11.48-33.07-26.17-58.72-41.5-78.52L1758,824.25A86,86,0,0,1,1857.23,894.63Z" style="mix-blend-mode:multiply" fill="#7b4fc9" opacity=".59"/><path fill="#f95d6c" d="M1456.49,762.41l-11.94-70.26-382.27,65,12,70.26-54.37,9.24,24.58,144.54,495-84.18-24.58-144.54Zm-181.06,96.31a58,58,0,1,1,47.44-66.89A58,58,0,0,1,1275.43,858.72Z"/><path fill="#7b4fc9" d="M1572.45,1412.79l0-.48S1572.48,1412.47,1572.45,1412.79Z"/><rect width="355.76" height="441.77" x="944.61" y="1240.67" fill="#f0ebff" transform="rotate(-9.65 1122.639 1461.71)"/><rect width="864" height="66.46" x="886.3" y="1062.08" fill="#e0d1fc" transform="rotate(-9.65 1318.445 1095.43)"/><g clip-path="url(#a)"><path fill="#e0d1fc" d="M1278.79,1652.22s-17.37,101-80.35,142.52-113-27.47-124.28-49.82,2.37-63,2.37-63,12.38-9.56,6.4-33.77,112.19-81.64,145-80.7c0,0,0,1,0,2.82.06,8.93,1.33,37,14.12,52.68,9.11,11.2,20.33,19.41,28,24.24C1275.27,1650.51,1278.79,1652.22,1278.79,1652.22Z"/><path fill="#b2a3e2" d="M970.87,1401.06s-8.37,33.18-8.14,56.49S990,1496.81,990,1496.81s3.37-79,12.58-85.26S970.87,1401.06,970.87,1401.06Z"/><path fill="#e0d1fc" d="M1239.87,1534.84a171.8,171.8,0,0,1-6.36,23.48c-.33,1-.67,1.87-1,2.78-11.7,30-50.23,50.57-61.11,58-5.36,3.68-21.48,14.37-38.16,24.36h0l0,0c-17.2,10.29-34.94,19.82-42,20.07-13.92.5-31.49-4-48.37-26.32s-49.47-87.78-57.92-176a232,232,0,0,1-.52-41c4.62-57.09,31.6-78.25,31.6-78.25,82.06-54.54,136-43.71,170.74-13.89,35.51,30.55,50.77,81,55.21,101.55C1248.55,1460.48,1246.42,1503,1239.87,1534.84Z"/><path fill="#b2a3e2" d="M1255,1457.34s8,3.29,3.9,33.88c-3.09,22.84-13.8,37.59-19,43.62a39.73,39.73,0,0,1-2.92,3.07s-1.71-15.58-11-26.14-.5-19.52,2.48-29.38-3-39.63-23.26-32.45-10.71,57.85-10.71,57.85l-23.9,2.2a48.68,48.68,0,0,1-.52-19.53c1.93-10.59-15.65-64.57-15.65-64.57a12.41,12.41,0,0,1-14.16,4.77,20.63,20.63,0,0,1-5.06-2.43c-12.6-8.14-12.48-24-30.8-21.85s-73.63,22.8-102.41,18.34a93.05,93.05,0,0,1-17.64-4.44c-24.11-8.79-46.76-30.2-38.8-80.29,10-62.39,71.47-41.11,71.47-41.11,44.34-46.75,73.87.52,73.87.52l9.49-10c9.5-10,22.58,6.44,22.58,6.44s-5.36-20.58,30.64-23c35.52-2.35,28.8,40.59,28.62,41.81.26-.29,3.37-3.39,10.87-3.5a28.25,28.25,0,0,1,3.48.14c9.9,1,5,8.68,4.47,9.48.75-.54,10.72-7.2,33.45,15.84,23.69,24,10.59,45.82,10.59,45.82l14.18,28.41C1273.4,1439.27,1255,1457.34,1255,1457.34Z"/></g><rect width="500.42" height="54.73" x="1170.54" y="1726.25" fill="#f0ebff" transform="rotate(-9.65 1420.9 1753.786)"/><rect width="406.59" height="27.37" x="1009.72" y="1873.33" fill="#f0ebff" transform="rotate(-9.65 1213.135 1887.176)"/><rect width="406.59" height="27.37" x="1483.78" y="1792.71" fill="#f0ebff" transform="rotate(-9.65 1687.28 1806.576)"/><rect width="406.59" height="27.37" x="1021.52" y="1942.7" fill="#f0ebff" transform="rotate(-9.65 1224.933 1956.597)"/><rect width="406.59" height="27.37" x="1495.58" y="1862.09" fill="#f0ebff" transform="rotate(-9.65 1699.083 1875.938)"/><rect width="406.59" height="27.37" x="1033.31" y="2012.08" fill="#f0ebff" transform="rotate(-9.65 1236.736 2025.958)"/><rect width="406.59" height="27.37" x="1507.38" y="1931.46" fill="#f0ebff" transform="rotate(-9.65 1710.886 1945.3)"/><rect width="406.59" height="27.37" x="1045.11" y="2081.45" fill="#f0ebff" transform="rotate(-9.65 1248.539 2095.32)"/><rect width="406.59" height="27.37" x="1519.17" y="2000.84" fill="#f0ebff" transform="matrix(.99 -.17 .17 .99 -313.35 317.27)"/><rect width="817.08" height="70.37" x="1091.16" y="2150.15" fill="#f0ebff" transform="rotate(-9.65 1499.886 2185.558)"/><rect width="293.21" height="66.46" x="1112.29" y="2345.15" fill="#f0ebff" transform="rotate(-9.65 1259.047 2378.616)"/><rect width="156.46" height="39.1" x="1330.91" y="1224.89" fill="#f0ebff" transform="matrix(.99 -.17 .17 .99 -188.68 253.85)"/><rect width="217.06" height="39.1" x="1567.43" y="1179.52" fill="#f0ebff" transform="rotate(-9.65 1676.151 1199.179)"/><rect width="316.75" height="39.09" x="1345.5" y="1303.96" fill="#f0ebff" transform="rotate(-9.65 1504.038 1323.648)"/><rect width="84.14" height="39.09" x="1715.14" y="1260.88" fill="#f0ebff" transform="rotate(-9.65 1757.34 1280.482)"/><rect width="211.19" height="39.09" x="1361.98" y="1405.31" fill="#f0ebff" transform="rotate(-9.65 1467.744 1424.981)"/><rect width="170.14" height="39.1" x="1645.47" y="1360.59" fill="#f0ebff" transform="rotate(-9.65 1730.778 1380.31)"/></g><g data-name="7"><path fill="#7b4fc9" d="M3191.89,433v2145.7a124.58,124.58,0,0,1-124.57,124.59H2042.82a124.52,124.52,0,0,1-124.58-124.59V433a124.57,124.57,0,0,1,124.58-124.56h1024.5A124.57,124.57,0,0,1,3191.89,433Z"/><path d="M3191.89,433v2145.7a124.58,124.58,0,0,1-124.57,124.59H2042.82a124.57,124.57,0,0,1-114.52-75.49c60.29-163.1,156.94-328.13,255.49-370.38,183.59-78.68,695-937.61,636-1416.25-40.16-325.78,120.14-472.34,226.63-532.73h20.9A124.57,124.57,0,0,1,3191.89,433Z" style="mix-blend-mode:multiply" fill="#7b4fc9" opacity=".43"/><rect width="1213.26" height="2173.57" x="1948.43" y="416.64" fill="#f0ebff" rx="16.28"/><path fill="#fff" d="M2651,382.08H2313.29A21.31,21.31,0,0,1,2292,360.77h0a21.31,21.31,0,0,1,21.31-21.31H2651a21.31,21.31,0,0,1,21.31,21.31h0A21.31,21.31,0,0,1,2651,382.08Z"/><path fill="#0c1e42" d="M2726.57,383.07H2713a22.74,22.74,0,0,1-22.74-22.75h0A22.74,22.74,0,0,1,2713,337.58h13.53a22.74,22.74,0,0,1,22.74,22.74h0A22.74,22.74,0,0,1,2726.57,383.07Z"/><rect width="201.62" height="73.76" x="2441.48" y="2610.73" fill="#e0d1fc"/><path fill="#e0d1fc" d="M3019.78,544.49H2090.36a34.42,34.42,0,0,1-34.43-34.42h0a34.42,34.42,0,0,1,34.43-34.42h929.42a34.42,34.42,0,0,1,34.42,34.42h0A34.42,34.42,0,0,1,3019.78,544.49Z"/><rect width="1022.88" height="190.16" x="2039.53" y="2329.56" fill="#e0d1fc"/><path d="M2039.53,2519.73S2195.05,2410,2383,2442.34s234.22,35.44,309.72-10.79,58.55-57,126.35-46.22,243.31-55.77,243.31-55.77v190.17Z" style="mix-blend-mode:multiply" fill="#e0d1fc"/><rect width="174.57" height="162.28" x="2062.32" y="2344.46" fill="#f95d6c"/><path d="M2062.32,2506.74s15.57-44.26,44.26-50,35.24-10.65,48.36-28.68,6.55-34.43,27-41,54.91-42.62,54.91-42.62v162.28Z" style="mix-blend-mode:multiply" fill="#f95d6c"/><path fill="#fff" d="M2220.32,2377.53l-8.92-19.81-.28.16c-59.78,10.56-91.91,42.91-108.34,68.2-17.87,27.49-21.44,52.64-21.58,53.69l.36.05-.14.23,19.94,8.63a16.79,16.79,0,0,0,20.67-6.15l8.06-12.19a16.78,16.78,0,0,0-1.33-20.27l-6.33-7.28a123.73,123.73,0,0,1,49.75-45.69l9.94,8.39a16.79,16.79,0,0,0,20.29,1l12.06-8.24A16.77,16.77,0,0,0,2220.32,2377.53Z"/><rect width="174.57" height="162.28" x="2872.9" y="2344.46" fill="#69dfd4"/><path d="M2872.9,2506.74s13.11-36.88,48.36-44.26,60.65-7.38,70.48-40.16,18.85-44.26,33.61-52.46,22.13-25.4,22.13-25.4v162.28Z" style="mix-blend-mode:multiply" fill="#69dfd4"/><path fill="#fff" d="M3035.86,2486.54H2880.41V2374.49h155.45Zm-142.6-12.84H3023v-86.37H2893.26Z"/><polygon fill="#fff" points="2958.27 2439.97 2882.44 2389.13 2889.59 2378.47 2958.01 2424.34 3025.7 2375.7 3033.19 2386.12 2958.27 2439.97"/><rect width="411.41" height="13.87" x="2347.6" y="2365.3" fill="#fff"/><rect width="411.41" height="13.87" x="2347.6" y="2403.82" fill="#fff"/><rect width="411.41" height="13.87" x="2347.6" y="2442.34" fill="#fff"/><path fill="#9d79dd" d="M2549.88,2179.11l-8.63,150.45h-270l5.1-223.86-1.41-159.81,243.27,9c.06,13.67.66,104,8.66,146.53,4.8,25.56,13.55,43.12,22.9,60.35Z"/><path fill="#9d79dd" d="M2832.05,2105.7v223.86h-250c.36-35.3-.67-96.28-10.59-123.08-6.43-17.32-14.24-30.93-21.73-44.75L2548.43,1956l-30.23-1.12v-1.75l293.69-4.31S2832.05,2066.83,2832.05,2105.7Z"/><path fill="#9d79dd" d="M2549.76,2161.73c-9.35-17.23-18.1-34.79-22.9-60.35-8-42.52-8.6-132.86-8.66-146.53l30.23,1.12Z"/><path fill="#9d79dd" d="M2548.43,1956l1.33,205.76c-9.35-17.23-18.1-34.79-22.9-60.35-8-42.52-8.6-132.86-8.66-146.53Z"/><path fill="#ffb592" d="M2682.31,1046.65s-35.5,100.76-107.48,132.42-111.32-48-119-72.92,13.44-64.31,13.44-64.31,14.39-7.67,12.48-33.59,129.57-64.29,163.15-57.58c0,0-.2,1.05-.5,2.89-1.51,9.19-5.1,38.23,5.3,56.61,7.4,13.1,17.49,23.49,24.49,29.79A104.3,104.3,0,0,0,2682.31,1046.65Z"/><path fill="#69dfd4" d="M2676.56,1038l-.26,41.11-5.49,870.63a294.25,294.25,0,0,1-40.33,10.66c-98.17,19.1-208.23-3.46-215-6.82,0,0-40.31-502.89-5.77-658.37,30.7-138.09,53.81-230.76,58.61-249.76-4.53,20-22.12,116.39,60.4,125,58.89,6.14,102.86-49.68,127-90.74,2.8-4.78,5.32-9.36,7.57-13.61a299.13,299.13,0,0,0,13.25-28.08Z"/><path fill="#fff" d="M2880,2132.09c-36.21,15.69-74.33,24-109.55,28-76.83,8.71-140-3-140-3s-.21-81.17,0-196.65c.41-236.51,2.52-616.89,11.54-738.13,5.24-70.2,11.61-113.67,17.46-140.59,1.31-6,2.59-11.12,3.81-15.58,7.18-26,12.84-28,13.25-28.08l0,0c4.8.25,11.47,1.94,19.45,4.66,52.82,18.12,162.9,82.74,162.9,89.39,0,4.85-.75,125.45-1.34,214-.32,52.06-.58,93.07-.58,93.07l3.83,259.12Z"/><path d="M2770.48,2160.07c7.95-68.05,20.18-193.5,7.82-233.37-17.28-55.65-61.42-117.09-61.42-151.63s55.65-72.94,57.58-115.17-19.2-28.78-28.79-55.66,21.11-34.56,48-78.69S2834,1345.12,2834,1345.12l23.61,1c-.32,52.06-.58,93.07-.58,93.07l3.83,259.12,19.21,433.8C2843.82,2147.78,2805.7,2156.07,2770.48,2160.07Z" style="mix-blend-mode:multiply" fill="#e0d1fc"/><polygon fill="#9d79dd" points="2750.46 1896.96 2855.55 1863.85 2865.63 1908.47 2759.1 1950.22 2750.46 1896.96"/><path fill="#fff" d="M2250.49,1559.27c-5.58,35.69-9.64,58.41-9.64,58.41s-52.81,60-93.88,66.1c-10.88,1.66-20.94-.49-29-8.53-16.05-16-28.74-37.48-38.1-61.61-13-33.56-19.49-72.36-19.49-109.21,0-44.73,6.71-59.79,17.4-72.21,3-3.52,6.36-6.82,10-10.53,1.71-1.74,3.45-3.57,5.26-5.56,19.19-21.11,51.83-74.86,80.63-147.8S2260,1128.22,2260,1128.22C2306,1166.76,2269.49,1438,2250.49,1559.27Z"/><path fill="#fff" d="M2469.26,1041.84s-42.23,263-42.23,462.59V2162.8s-165.08,0-197.7-23l1.91-295.58s-1-125.85-1.56-214.71c-.16-26.78-.3-50.2-.33-65.8,0-3.54,0-6.66,0-9.34,0-53.74,30.71-426.11,30.71-426.11S2436.63,1039.92,2469.26,1041.84Z"/><path fill="#fff" d="M2147,1683.78a24.87,24.87,0,0,1-4.49,1.56c-53.27,13-220.25-167-243.3-178.51s-41.74,0-60.46-27.36c-1.13-1.64-2.2-3.23-3.21-4.79-16.09-24.44-20-40.41.34-94.54,21.59-57.57,51.83-59,67.66-51.82s118,83.49,135.32,90.69c9.52,4,26.06,9.26,39,13.21,10.49,3.19,18.59,5.51,18.59,5.51,45.75,23.53,70.44,74,78.77,123.42C2184.67,1617.38,2172.94,1672.13,2147,1683.78Z"/><path fill="#fff" d="M3094.05,1643.58c-21.47,9.29-50.62,7.13-78.38.75-41.12-9.45-79.14-28.13-84.31-32.42-4.27-3.55-6.77-11-10-20.75-3.25-9.94-7.22-22.29-14.49-35.39-14.4-25.91-8.63-23-14.4-44.61s-28.79-38.89-51.81-60.47-20.15-17.29-18.72-116.62,36.95-202,36.95-202c42.7,1,212.09,266.81,226.49,348.87S3094.05,1643.58,3094.05,1643.58Z"/><path fill="#fff" d="M2953,1918.55c-20.15,24.47-14.4,37.44-30.23,67.66-5.33,10.2-12.81,18.26-22,22.64-18.12,8.65-42.93,3.07-71.55-28.39-43.19-47.52-14.4-109.41-8.63-133.9S2868,1717,2885.29,1669.5a516.8,516.8,0,0,1,36.09-78.34c.88-1.5,1.35-2.27,1.35-2.27,15.13-26.74,32.69-40.43,50.65-45,55.54-14.19,115.23,58.35,120.67,99.68C3101.24,1698.29,2973.12,1894.08,2953,1918.55Z"/><path fill="#0c1e42" d="M2409.76,734.73s-14.4,32.63-18.23,56.63,21.11,45.1,21.11,45.1,17.27-80.61,27.83-85.41S2409.76,734.73,2409.76,734.73Z"/><path fill="#ffb592" d="M2662.82,919.22a178.16,178.16,0,0,1-10.63,23c-.51.93-1,1.81-1.55,2.67-17.27,28.8-60.46,43.19-72.94,48.94-6.14,2.84-24.58,11-43.47,18.37h0l0,0c-19.47,7.57-39.37,14.26-46.68,13.28-14.4-1.91-31.67-9.58-45.11-35.5s-35.5-98.86-28.77-191a241.38,241.38,0,0,1,6.63-42.19c14.72-57.87,46.14-74.9,46.14-74.9,93.86-41.7,147.45-21.14,177.89,15.56,31.16,37.61,38,92.15,39,114C2684.74,844.33,2675.11,887.67,2662.82,919.22Z"/><path fill="#0c1e42" d="M2691.92,842.22s7.68,4.79-1.92,35.5c-7.16,22.93-20.75,36.22-27.18,41.5a40.82,40.82,0,0,1-3.53,2.65s1-16.31-6.73-28.79,2.9-20.15,7.69-29.75,3.83-41.26-18.23-37.42-21.13,57.58-21.13,57.58L2596,881.58a50.71,50.71,0,0,1,2.88-20.17c3.83-10.54-4.79-42.21-1-56.61s35.5-30.71,28.79-30.71S2594,792.32,2594,792.32a13,13,0,0,1-15.4,2.43,21.29,21.29,0,0,1-4.77-3.39c-11.52-10.56-8.63-26.87-27.84-27.83s-79.65,10.56-108.44,1a97,97,0,0,1-17.35-7.65c-23.25-13.25-42.77-39.21-25.84-89.3,21.12-62.37,80.63-29.75,80.63-29.75,53.73-40.29,75.82,13.44,75.82,13.44l11.5-8.63c11.52-8.64,22.08,10.57,22.08,10.57s-1.92-22.09,35.5-18.25c36.92,3.79,22.5,46.74,22.11,48,.32-.24,4.06-2.89,11.78-1.69a28.32,28.32,0,0,1,3.55.75c10,2.74,3.61,9.79,2.94,10.53.86-.44,12.27-5.53,31.61,22.12,20.15,28.79,2.87,48.94,2.87,48.94l9.61,31.67C2714,826.87,2691.92,842.22,2691.92,842.22Z"/><path fill="#7b4fc9" d="M1914.26,1379.54c0,9.28-.61,19.88-1.64,31.8-2.31,26.8-13.29,46.48-25.79,59.14-13.43,13.65-28.62,19.16-36.59,16.68-15.35-4.8-26.39-33.65-26.39-51.35,0-2.65.1-5.38.32-8.23,1.23-15.28,6.24-34.3,20.79-64.22a92.42,92.42,0,0,1,7.44-12.78,55.29,55.29,0,0,1,13.48-13.89c10-7,17.95-6,17.95-6a29.57,29.57,0,0,1,13.15,1.71C1909.59,1337.48,1914.27,1353.19,1914.26,1379.54Z"/><path fill="#ffb592" d="M1914.26,1379.54c0,9.28-.61,19.88-1.64,31.8-2.31,26.8-13.29,46.48-25.79,59.14-24.22-15.71-58.18-41.59-58.18-41.59s-1.62-.43-4.48-1.31c-19.19-5.83-94.51-31-111.62-70.58,0,0,0,0,0,0a40,40,0,0,1-3.28-19.74s2.1-3.59,5.78-9c1.83-2.73,4.06-5.9,6.64-9.34,2.27-3.07,4.83-6.34,7.61-9.64,2-2.48,4.25-5,6.54-7.45a108.58,108.58,0,0,1,19.32-16.8s0,0,.06,0c7-4.54,14.17-7.44,21.22-7.44,11.76,0,25.69,8.08,39.73,18.63,11.54,8.66,23.12,19,33.62,27.85,5.77,4.85,11.2,9.25,16.11,12.69s9.21,5.88,12.87,6.93c16.09,4.59,24.47,9.74,28.7,17.82,0,0,0,0,0,0a33.3,33.3,0,0,1,3.21,10.83.32.32,0,0,1,0,.08C1911,1374.41,1912.28,1376.85,1914.26,1379.54Z"/><path fill="#ffb592" d="M1851.74,1342.2l-3.55-32.69-24.17-32s-14.92-10.66-10.66-19.9,17.77,2.84,23.46,8.53,27.71,21.32,35.53,32.69,17.77,17.77,24.87,34.11,13.5,39.44,13.5,39.44S1852.45,1396.21,1851.74,1342.2Z"/><path fill="#ffb592" d="M1816.21,1296l-34.12-30.56-26.29-24.16-22.74-29.14s-12.08-24.16-19.9-12.79.71,21.32,5,32.69,22.77,33.44,32,46.19,22.75,27.72,28.43,34.82S1808.39,1314.48,1816.21,1296Z"/><path fill="#ffb592" d="M1778.54,1306l-34.11-30.56-26.3-24.16-22.74-29.14s-12.08-24.16-19.89-12.79.71,21.32,5,32.69,22.77,33.44,32,46.19,22.74,27.72,28.43,34.82S1770.72,1324.43,1778.54,1306Z"/><path fill="#ffb592" d="M1772.15,1334.38,1738,1303.82l-26.29-24.16L1689,1250.52s-12.08-24.16-19.9-12.79.71,21.32,5,32.69,22.77,33.44,32,46.2,22.75,27.71,28.43,34.82S1764.33,1352.86,1772.15,1334.38Z"/><path fill="#ffb592" d="M1766.46,1359.26l-34.11-30.56-26.3-24.17-22.74-29.13s-12.08-24.16-19.9-12.79.71,21.32,5,32.69,22.77,33.44,32,46.19,22.74,27.72,28.43,34.82S1758.64,1377.73,1766.46,1359.26Z"/><path d="M2691.92,842.22s7.68,4.79-1.92,35.5c-7.16,22.93-20.75,36.22-27.18,41.5a170.3,170.3,0,0,1-12.18,25.69c-17.27,28.8-60.46,43.19-72.94,48.94-6.14,2.84-24.62,11-43.53,18.39,3.48-13.1,8-6.87,26.27-27,11.6-12.82,7.68-39.35,8.64-60.45s-8.65-27.84,9.58-56.63c13.83-21.82,5-57.44,0-73.39-1.61-5.1-2.85-8.2-2.85-8.2-1-33.58,6.72-27.81,24-31.67,14.94-3.31,30.59-31.76,44.48-57.38,2.16-4,4.29-8,6.37-11.71a26.33,26.33,0,0,1,3.18-4.6,28.32,28.32,0,0,1,3.55.75c10,2.74,3.61,9.79,2.94,10.53.86-.44,12.27-5.53,31.61,22.12,20.15,28.79,2.87,48.94,2.87,48.94l9.61,31.67C2714,826.87,2691.92,842.22,2691.92,842.22Z" style="mix-blend-mode:multiply" fill="#ffb592" opacity=".35"/><path d="M2674.18,1040c-2.39,2.8-6.32,9.62-10.89,26.14-2.25,4.25-4.77,8.83-7.57,13.61-14.79-8-35.92-21.93-37.38-38.51-1.92-21.75-12.8-38.38-23-39-10-.62-59.29,9.66-61.08,10,18.89-7.35,37.33-15.53,43.47-18.37,11.17-5.14,46.9-17.19,66.69-40.29-1.51,9.19-5.1,38.23,5.3,56.61C2657.09,1023.27,2667.18,1033.66,2674.18,1040Z" style="mix-blend-mode:multiply" fill="#ffb592" opacity=".58"/><rect width="95.97" height="28.79" x="2294.59" y="1471.8" fill="#9d79dd"/><polygon fill="#9d79dd" points="2229.33 1886.4 2309.95 1890.24 2286.91 1953.58 2206.3 1951.66 2229.33 1886.4"/><path fill="#7b4fc9" d="M2922.24,1979.18c-5.41,15.07-13.11,31.84-38.6,30.5-1.56-.06-3.19-.21-4.9-.43-29.44-3.85-59.51-36.48-66.54-66.55q-.61-2.71-1-5.28c-4.08-27,10.62-43.34,10.62-43.34,17.53-14.48,35.52-10.92,51.34.67,23.21,17,41.82,51.12,47.61,71C2922.56,1971.92,2923.15,1976.7,2922.24,1979.18Z"/><path fill="#ffb592" d="M2920.76,1965.76c-9.21,9.28-22.7,26.2-37.12,43.92-26.26,32.27-55.58,67.25-67.55,63.83-21.82-6.24-76.9-45.73-66.51-58.21s28.06-44.69,39.49-62.36c5.09-7.87,13.92-12.65,22.12-15.52a82.83,82.83,0,0,1,19.47-4.23l42.49-38.44C2896.36,1911.7,2915,1945.87,2920.76,1965.76Z"/><path fill="#ffb592" d="M2808.13,1939.07s-18.71,6.24-27.72,10.4-34,22.17-34,22.17-27,15.94-30.49,20.1-.69,8.31,2.77,9,22.87-1.39,28.42-6.24,19.4-10.39,35.34-17.32,29.8,3.46,38.11-13.17S2814.37,1937,2808.13,1939.07Z"/><path fill="#ffb592" d="M2767.94,1990.35l-31.88,37.42-21.48,17.33s-24.26,11.09-24.26,20.79,18,4.85,18,4.85,22.17-10.39,31.18-13.86,25.64-21.48,41.58-32.57C2793.32,2015.81,2776.94,1990.35,2767.94,1990.35Z"/><path fill="#ffb592" d="M2779.37,2019.46l-31.88,37.42L2726,2074.21s-24.26,11.08-24.26,20.78,18,4.86,18,4.86S2742,2089.45,2751,2086s25.64-21.49,41.58-32.57C2804.75,2044.92,2788.38,2019.46,2779.37,2019.46Z"/><path fill="#ffb592" d="M2811.59,2025.7l-31.87,37.42-21.49,17.32s-24.25,11.09-24.25,20.79,18,4.85,18,4.85,22.17-10.39,31.18-13.86,25.64-21.48,41.58-32.57C2837,2051.16,2820.6,2025.7,2811.59,2025.7Z"/><path fill="#ffb592" d="M2824.07,2029.85l-31.88,37.43-21.48,17.32s-24.26,11.09-24.26,20.79,18,4.85,18,4.85,22.18-10.39,31.19-13.86,25.64-21.48,41.57-32.57C2849.45,2055.31,2833.08,2029.85,2824.07,2029.85Z"/><path d="M3094.05,1643.58c7.19,54.71-120.93,250.5-141.09,275s-14.4,37.44-30.23,67.66c-5.33,10.2-12.81,18.26-22,22.64a95.2,95.2,0,0,1,8.1-36.08c15.35-34.55,15.35-42.23,1.93-99.8s13.42-17.29,40.3-30.71,38.39-113.26,46.06-153.57c3.18-16.67,11-31.35,18.57-44.36,10.79-18.43,21.28-33.47,17.91-45.85-5.77-21.11-38.39-26.86-57.58-44.15-4.38-3.95-4.76-7.39-2.62-10.43,7.2-10.34,43.18-16.28,50.6-22.2,9.6-7.67-23-90.21-67.17-180.43s-89.74-97.88-101.74-142c-11.12-40.92,3.84-67.19,3.84-67.19,42.7,1,212.09,266.81,226.49,348.87S3094.05,1643.58,3094.05,1643.58Z" style="mix-blend-mode:multiply" fill="#e0d1fc"/><path d="M2229.68,1629.47c-17.7,17.78-53.24,49.93-82.71,54.31a24.87,24.87,0,0,1-4.49,1.56c-53.27,13-220.25-167-243.3-178.51s-41.74,0-60.46-27.36c-1.13-1.64-2.2-3.23-3.21-4.79l48.32-14.4s15.35,23,40.31,9.6,51.82-40.31,49.9-9.6-21.11,36.48-3.83,63.34c12.72,19.79,72.28,67.69,109.7,90,13.38,8,24,12.73,28.49,11.71,17.28-3.83,40.32-42.23,46.07-32.63,3.89,6.49,10.39-19.35,20.71-31.57,5-5.88,10.81-8.59,17.69-3,8.36,6.86,22.47,7.37,36.48,5.49C2229.38,1579.27,2229.52,1602.69,2229.68,1629.47Z" style="mix-blend-mode:multiply" fill="#e0d1fc"/><path d="M2130.51,1492.1a3.24,3.24,0,0,1-.12-.51,2.42,2.42,0,0,1,.1.36A.41.41,0,0,1,2130.51,1492.1Z" style="mix-blend-mode:multiply" fill="#e0d1fc"/><path d="M2123.76,1447.8c-1.67,5,5.37,38.34,6.6,43.7-1.85-4.48-17.2-6.66-19.08-18.74-1.92-12.48-33.46-40.54-33.46-40.54,3-3.52,6.36-6.82,10-10.53,16.93,16.6,52.43,24.3,53.24,30C2142,1458.36,2125.68,1442.05,2123.76,1447.8Z" style="mix-blend-mode:multiply" fill="#e0d1fc"/><path fill="#7b4fc9" d="M2650.63,1723.27l-1.88,0c1.86-70.69,56.59-304.39,59.42-316.43l-23.53-27.45,29.22-13.64c-1.05-4.53-7-29.83-19-77.94-13.32-53.3,11.25-230.82,11.5-232.61l1.86.26c-.25,1.78-24.77,178.94-11.53,231.9,13.28,53.13,19.14,78.46,19.2,78.71l.17.74L2687.68,1380l22.54,26.29-.11.47C2709.53,1409.19,2652.52,1651.26,2650.63,1723.27Z"/><path fill="#7b4fc9" d="M2406.86,1658.06l-1.88-.15c11.37-149.7-41.64-309-42.18-310.57l-.26-.79,41.77-20-42.53-3.54a5.23,5.23,0,0,1-4.45-2.09c-3.86-4.91-2-16.92,5.49-35.68,15.17-37.93,83.75-234.07,84.44-236l1.77.62c-.69,2-69.28,198.16-84.46,236.13-9.46,23.63-7.69,31.31-5.79,33.78a3.34,3.34,0,0,0,2.87,1.41h.2l49.52,4.12-46.53,22.25C2368.9,1359.91,2417.84,1513.42,2406.86,1658.06Z"/><path fill="#7b4fc9" d="M2673.68,2068.75c0,7.1-5.15,12.87-11.51,12.87s-11.52-5.77-11.52-12.87,5.16-12.88,11.52-12.88S2673.68,2061.64,2673.68,2068.75Z"/><path fill="#7b4fc9" d="M2673.68,1795.23c0,7.1-5.15,12.87-11.51,12.87s-11.52-5.77-11.52-12.87,5.16-12.88,11.52-12.88S2673.68,1788.12,2673.68,1795.23Z"/><path fill="#7b4fc9" d="M2548.53,2162.55c-48.07-40.79-37.44-164.16-37-169.4l5.62.51c-.12,1.25-10.84,125.69,35,164.59Z"/><path d="M1944.3,2065.79S1941,1895.32,2049.21,1833c146.67-84.45,249.15-239.32,213.09-377s147.53-304.89,344.23-334.4S2868.8,1042.94,2908.14,938s78.69-111.46,147.53-137.69,104.91-62.29,104.91-62.29V2062.52Z" style="mix-blend-mode:screen" fill="#e0d1fc" opacity=".38"/></g><g data-name="6"><path fill="#feb500" d="M2249.36,565.17v191c0,.65,0,1.29,0,1.93a91.79,91.79,0,0,1-91.76,89.87h-39.78l66,110.65L1992.47,847.93H1628.11a91.72,91.72,0,0,1-91.81-91.8v-191a91.81,91.81,0,0,1,91.81-91.8h529.46A91.81,91.81,0,0,1,2249.36,565.17Z"/><path fill="#fff" d="M1759.27,590.41H1645.21a12.29,12.29,0,0,0-12.29,12.29h0a12.3,12.3,0,0,0,12.29,12.3h114.06a12.3,12.3,0,0,0,12.3-12.3h0A12.3,12.3,0,0,0,1759.27,590.41Z"/><path fill="#fff" d="M1978.86,602.7h0a12.3,12.3,0,0,0,12.29,12.3h136a12.3,12.3,0,0,0,12.3-12.3h0a12.3,12.3,0,0,0-12.3-12.29h-136A12.29,12.29,0,0,0,1978.86,602.7Z"/><path fill="#fff" d="M1890.41,590.41H1819a12.29,12.29,0,0,0-12.29,12.29h0A12.3,12.3,0,0,0,1819,615h71.38a12.3,12.3,0,0,0,12.29-12.3h0A12.29,12.29,0,0,0,1890.41,590.41Z"/><rect width="146.02" height="24.59" x="1632.92" y="648.19" fill="#fff" rx="12.29"/><rect width="136.94" height="24.59" x="1841.16" y="648.19" fill="#fff" rx="12.29"/><rect width="72.88" height="24.59" x="2066.55" y="648.19" fill="#fff" rx="12.29"/><path fill="#fff" d="M1909.26,706h-264a12.3,12.3,0,0,0-12.29,12.3h0a12.29,12.29,0,0,0,12.29,12.29h264a12.29,12.29,0,0,0,12.29-12.29h0A12.3,12.3,0,0,0,1909.26,706Z"/><path d="M2157.57,847.93h-39.78l66,110.65L1992.47,847.93H1628.11a91.83,91.83,0,0,1-84.62-56.12c15.24,16.5,38.46,32.36,71.49,32.36,68.86,0,63.93-31.15,121.31-37.7s68.84,18,127.86,18,65.56-36.06,124.58-36.06,77,44.27,119.66,37.7c39.47-6.07,104.25,11.75,140.94-48.07A91.79,91.79,0,0,1,2157.57,847.93Z" style="mix-blend-mode:multiply" fill="#feb500" opacity=".6"/></g><g data-name="5"><polygon fill="#e0d1fc" points="4223.47 462.23 4223.47 1254.04 3845.12 1254.04 3750.1 1451.99 3645.08 1254.04 3268.15 1254.04 3268.15 462.23 4223.47 462.23"/><path d="M4223.47,462.23V1254H3845.12l-95,198-105-198H3268.15s21.51-189.34,180.72-236.68,266.81-66.7,312-191.51,75.3-206.55,178.57-228.06S4223.47,462.23,4223.47,462.23Z" style="mix-blend-mode:multiply" fill="#e0d1fc" opacity=".51"/><path fill="#9d79dd" d="M4175.06,537.53H3323a22.59,22.59,0,0,1-22.6-22.59h0a22.59,22.59,0,0,1,22.6-22.59h852.05a22.59,22.59,0,0,1,22.59,22.59h0A22.59,22.59,0,0,1,4175.06,537.53Z"/><polyline fill="none" stroke="#9d79dd" stroke-miterlimit="10" stroke-width="6.04" points="3915.78 782.82 3818.96 782.82 3735.05 907.62"/><path fill="#fff" fill-rule="evenodd" d="M3299.85,542.66h883.4c18.5,0,33.64,16.58,33.64,36.84V1211c0,20.27-15.14,36.84-33.64,36.84h-883.4c-18.51,0-33.64-16.57-33.64-36.84V579.5C3266.21,559.24,3281.34,542.66,3299.85,542.66Z"/><path fill="#6c9fa1" fill-rule="evenodd" d="M3747.88,780c34.9,21.84,69.67,44,104.5,66a11.2,11.2,0,0,1,5,9.48l0,132.06a11.09,11.09,0,0,1-5.86,10l-103.61,65.52a9.25,9.25,0,0,1-10,0l-104.42-66a11.16,11.16,0,0,1-5-9.48h0V855.54a11.12,11.12,0,0,1,5.64-9.88L3737.93,780a9.27,9.27,0,0,1,10,0Zm42.25,52-47.22-29.86-94.44,59.72V981.32l94.44,59.67,94.43-59.67V861.84Z"/><path fill="#6c9fa1" fill-rule="evenodd" d="M3857.83,987.6c0,6.06-4.49,11-10,11s-10-4.92-10-11V855.54a11.12,11.12,0,0,1,5.64-9.88L3947.29,780a9.27,9.27,0,0,1,9.95,0c34.9,21.84,69.67,44,104.5,66a11.17,11.17,0,0,1,5,9.48l0,132.06a11.07,11.07,0,0,1-5.86,10l-103.61,65.52c-4.78,3-10.9,1.25-13.67-4s-1.14-11.94,3.64-15l99.45-62.84V861.84l-94.44-59.72-94.43,59.72Z"/><path fill="#6c9fa1" fill-rule="evenodd" d="M3540.89,1064.06c-4.78,3-10.88,1.2-13.63-4s-1.09-11.92,3.68-14.92l104.42-66c4.78-3,10.91-1.24,13.67,4s1.14,11.93-3.64,15Z"/><path fill="#6c9fa1" fill-rule="evenodd" d="M3737.93,834.1c-4.77-3-6.42-9.69-3.68-14.92s8.85-7,13.63-4l76.72,48.47c4.78,3,6.41,9.74,3.64,15s-8.89,7-13.67,4l-76.64-48.48Zm76.64,126.46c4.78-3,10.9-1.24,13.67,4s1.14,11.94-3.64,15L3747.92,1028c-4.78,3-10.9,1.24-13.67-4s-1.13-11.93,3.64-15l76.68-48.48ZM3676.25,970c0,6.06-4.49,11-10,11s-10-4.92-10-11V873.1c0-6.06,4.5-11,10-11s10,4.92,10,11Z"/><path fill="#6c9fa1" fill-rule="evenodd" d="M3752.93,1187.22c0,6.06-4.49,11-10,11s-10-4.92-10-11V1055.15c0-6.06,4.49-11,10-11s10,4.92,10,11Z"/><path fill="#6c9fa1" fill-rule="evenodd" d="M4062.66,865.62c-4.77,3-10.9,1.25-13.66-4s-1.14-11.94,3.64-15l104.45-66c4.78-3,10.91-1.24,13.67,4s1.14,11.94-3.64,15Z"/><path fill="#6c9fa1" fill-rule="evenodd" d="M4039,970c0,6.06-4.5,11-10,11s-10-4.92-10-11V873.1c0-6.06,4.49-11,10-11s10,4.92,10,11Z"/><rect width="139.2" height="18.25" x="3320.99" y="603.23" fill="#6c9fa1"/><rect width="139.2" height="18.25" x="3320.99" y="670.55" fill="#6c9fa1"/><rect width="139.2" height="18.25" x="3320.99" y="707.53" fill="#6c9fa1"/><rect width="139.2" height="18.25" x="3320.99" y="746.54" fill="#6c9fa1"/><rect width="139.2" height="18.26" x="3320.99" y="817.33" fill="#6c9fa1"/><rect width="139.2" height="18.25" x="3320.99" y="854.32" fill="#6c9fa1"/><rect width="139.2" height="18.26" x="3320.99" y="893.32" fill="#6c9fa1"/><rect width="574.86" height="18.25" x="3528.58" y="670.55" fill="#6c9fa1"/><rect width="139.2" height="18.25" x="3566.97" y="707.53" fill="#6c9fa1"/><rect width="298.56" height="18.25" x="3760.43" y="707.53" fill="#6c9fa1"/></g><g data-name="4"><path fill="#e0d1fc" d="M3014.68,130.66l-5.57,2.09v.09L2722,244.36l47,202a364.67,364.67,0,0,0,105.23,182.83l135.87,127.88v0L3147.8,630.6A364.6,364.6,0,0,0,3253,447.76l47-202Z"/><path fill="#f95d6c" d="M3276.29,262.05l-43.17,185.38a334.58,334.58,0,0,1-96.57,167.79L3012.31,729.35l-2.14,2L2885.47,614a334.65,334.65,0,0,1-96.56-167.79l-43.18-185.4,263.54-102.35v-.08l4.16-1.55.94-.36Z"/><path d="M3276.29,262.05l-43.17,185.38a334.58,334.58,0,0,1-96.57,167.79L3012.31,729.35c9.2-76.12,14-174.2,3.43-212-16.95-60.73,31.08-145.48,19.78-244.36-7.91-69.26-17.22-102.48-22.09-116.16l.94-.36Z" style="mix-blend-mode:multiply" fill="#f95d6c"/><rect width="51.42" height="238.1" x="2994.27" y="293.7" fill="#fff"/><rect width="51.42" height="238.1" x="2994.27" y="293.7" fill="#fff" transform="rotate(90 3019.975 412.745)"/></g><g data-name="3"><path fill="#f95d6c" d="M4305.36,1550.33a223,223,0,0,1-10.48,67.78c-.91,2.94-1.91,5.89-3,8.78q-2.09,5.79-4.55,11.47c-1.17,2.81-2.42,5.59-3.73,8.31a223.83,223.83,0,0,1-161.16,123.46l-17,49.54-31.23-46a222.6,222.6,0,0,1-139.27-55,225.73,225.73,0,0,1-38.07-43c-3-4.42-5.86-8.94-8.56-13.61-1.72-3-3.39-6-5-9.12A224.16,224.16,0,0,1,3861,1516.46c16.31-107.31,109-189.59,220.91-189.59a223.36,223.36,0,0,1,223.46,223.46Z"/><path d="M4287.33,1638.36c-1.17,2.81-2.42,5.59-3.73,8.31a223.83,223.83,0,0,1-161.16,123.46l-17,49.54-31.23-46a222.6,222.6,0,0,1-139.27-55,225.73,225.73,0,0,1-38.07-43c28.51,23.62,71.39,47.91,130.41,53.1,121.32,10.65,119.18-61.71,172.39-51.07C4226.14,1683,4260,1661.4,4287.33,1638.36Z" style="mix-blend-mode:multiply" fill="#f95d6c"/><path d="M4280.69,1448.19c-28.21-19.51-66.69-40.79-100.18-40.79-61.71,0-72.36-49-138.35-14.93s-25.54,46.83-112.81,74.5c-32.52,10.31-54.08,29.48-68.36,49.49,16.31-107.31,109-189.59,220.91-189.59A223.39,223.39,0,0,1,4280.69,1448.19Z" style="mix-blend-mode:screen" fill="#f95d6c" opacity=".44"/><path fill="#fff" d="M4225.93,1540.72a60,60,0,0,1-31.76,33.51L4102.75,1615a60.35,60.35,0,1,0-49.15-110.23L4145,1464a60.37,60.37,0,0,1,79.69,30.54c.83,1.86,1.56,3.72,2.2,5.64A60.13,60.13,0,0,1,4225.93,1540.72Z"/><path fill="#feb500" d="M4138.07,1567.45a60.47,60.47,0,0,1-35.32,47.55l-67.21,30a60.33,60.33,0,0,1-79.67-30.57l-.08-.22a60.28,60.28,0,0,1,30.59-79.44l67.22-30a60.34,60.34,0,0,1,84.47,62.68Z"/><path d="M4225.93,1540.72a60,60,0,0,1-31.76,33.51L4102.75,1615a60.47,60.47,0,0,0,35.32-47.55c37.07-16.31,77.67-40.4,87.84-65,.33-.81.66-1.56,1-2.28A60.13,60.13,0,0,1,4225.93,1540.72Z" style="mix-blend-mode:multiply" fill="#ccc"/><path d="M4138.07,1567.45a60.47,60.47,0,0,1-35.32,47.55l-67.21,30a60.33,60.33,0,0,1-79.67-30.57l-.08-.22c7.78,5,20.34,8.34,40.26,4.61,45.41-8.5,53.91-27,82.31-31.23C4089.75,1585.85,4113.12,1578.4,4138.07,1567.45Z" style="mix-blend-mode:multiply" fill="#feb500"/></g><g data-name="2"><path fill="#162d2d" fill-rule="evenodd" d="M3343.15,2004.34c-13.65,22.77-77.14,46.8-139.09,31.27C3133.2,2017.85,3088,1960,3089.5,1901c125.67,33.85,160.33-345,211.15-424.67-38.51-51.93-9.88-104.51,24.76-128.42,32.92-22.72,70.07-18.59,104.61.14C3551.4,1413.9,3378,1946.1,3343.15,2004.34Z"/><path fill="#162d2d" fill-rule="evenodd" d="M3488.81,1995.74c14.9,22.65,79.71,46.55,140.81,31.1,69.88-17.67,111.87-75.16,107.16-133.85-123.81,33.67-162.46-192.31-188.45-300.68-17.3-72.16-2.66-193.58-64.33-237.71-41.28-29.54-90.92-26.74-118.14-11.6C3248.09,1408.46,3450.72,1937.81,3488.81,1995.74Z"/><path fill="#fdbc9e" fill-rule="evenodd" d="M3550.68,2800.31c17-17.62,28.26-36.54,45.3-54.16-67.6-27.88-74.71-66.88-94.17-134.53-14-48.64-66.28-116.95-88.71-165.76-1.47-51.69,23.3-92.45,32.88-139.53,61-299.7-183.07-237.72-176.81,9.26,1.06,41.61-8.8,131.14,15.07,177.49C3347.2,2604.17,3543.88,2785.48,3550.68,2800.31Z"/><path fill="#fda380" fill-rule="evenodd" d="M3523.29,2678.8c-8.17-18.72-13.88-40.77-21.48-67.18-14-48.64-66.28-116.95-88.71-165.76-1.47-51.69,23.3-92.45,32.88-139.53,24.49-120.23-.14-182.2-38-197.43-35.55,15.09-56.84,79.12-28,213.3,21.83,101.4,39.11,227,41.41,342.41,27.8,29.81,54.92,57.58,77.09,80.2C3507.17,2723.54,3515.84,2701.46,3523.29,2678.8Z"/><path fill="#fda380" fill-rule="evenodd" d="M3497,2597.72c-18.57-47.15-63.55-107.54-83.92-151.86-1.47-51.69,23.3-92.45,32.88-139.53,24.52-120.4-.21-182.38-38.17-197.5-37,15-64.33,79-47.79,213.37,10.56,85.81,16.27,189,12.73,288.58,28.44,32.63,58.87,65,86.38,93.57C3475,2670.09,3489.12,2634.25,3497,2597.72Z"/><path fill="#fda380" fill-rule="evenodd" d="M3447.94,2296.14c18.83-206.69-142.05-178.89-178.08-13.53-.72,10.59-1,21.59-.69,33,.59,23.06-2.18,60.83-.7,97.82,35.88,6.66,91.73,10.15,145.55,10.38,4.55-41.7,23.78-77.28,32-117.46C3446.69,2302.87,3447.31,2299.51,3447.94,2296.14Z"/><path fill="#059283" fill-rule="evenodd" d="M3570.09,2732.86c8.71-14.85,62.35-17.59,54.49,28.25-5.4,31.47-27.64,33.9-33.78,65.2-4.68,23.84-1.49,58.89-37.45,59.09-45.7.28-19.43-37.67-16.2-53.91,4.13-20.73,4.84-30.38,7.32-41.35C3569.69,2779.52,3577.05,2741.9,3570.09,2732.86Z"/><path fill="#254b4b" fill-rule="evenodd" d="M3599.4,2723.49c18-2.17,40.87,6.6,35.55,37.62-5.4,31.47-27.64,33.89-33.79,65.2-4.68,23.84-1.48,58.89-37.45,59.09-2.16,0-4.17-.06-6-.21,31.37-2.93,28.63-36,33.12-58.88,6.14-31.31,28.38-33.73,33.78-65.2C3628.91,2735.87,3614.59,2725.36,3599.4,2723.49Z"/><path fill="#fcccb2" fill-rule="evenodd" d="M3462.77,2846.24h-72.26c8-23.5,11.86-43,14.5-67.47,15.15-140.26-2.49-320.26-29.2-456.57-68.88-351.62,197.39-221.93,160.32,9.59-9.31,58.2-32.67,102.86-18.72,134.88,49.24,113-11.25,229.38-50.75,323.65C3457.93,2811.16,3454.1,2823.29,3462.77,2846.24Z"/><path fill="#fdbc9e" fill-rule="evenodd" d="M3364.71,2205.1c33.07-124,178.74-22.56,168.08,144.57-5.55,26.28-13.05,49.53-17,69.85-33.35,3.58-78.5,4.9-123.08,4-4.94-35.44-10.67-69.57-16.89-101.32C3366.5,2274.66,3363.35,2236,3364.71,2205.1Z"/><path fill="#06807a" fill-rule="evenodd" d="M3572.15,2849.38a272.53,272.53,0,0,1-15,35.86c32-2.59,29.17-35.95,33.68-58.93,6.14-31.31,28.38-33.73,33.78-65.2,4.68-27.29-12.43-37.36-28.89-37.91,22.65,21.37-21.7,70.19-21.66,76.62C3574.12,2817.53,3577.38,2833.39,3572.15,2849.38Z"/><path fill="#d7362e" fill-rule="evenodd" d="M3311.48,2032.22c-39.15,2-122.76-13.19-167.52-83.59-24.81-39-11.92-70.09,16.06-67.91s79,6.68,115.59-1.22c53.18-11.48,95.89-62.36,103.74-72.07C3435.21,1738.3,3456.86,2025,3311.48,2032.22Z"/><path fill="#d95651" fill-rule="evenodd" d="M3429.85,1604.45c-115.73,0-209.55,61-209.55,136.2,0,126.61,62.42,207.94,45.75,352.56-9.69,84.06-31.29,224.84-29.88,273.62,1,34,361.56,38.73,355.3,8.19-16.38-79.88-32.87-295.06-31.81-339,1.1-45.15,1.86-101.49,10.55-158,13.3-86.44,31.27-173.82-11.39-225.94C3534.66,1622.56,3494.37,1604.45,3429.85,1604.45Z"/><path fill="#de6864" fill-rule="evenodd" d="M3341.78,1617a214.62,214.62,0,0,1,23.15,14.36c118.25,84.09,148.79,281.65,149.83,448,.62,100.23-8.81,208.2-27.37,315.28-104.64,3.59-250.6-6.19-251.23-27.82-1.4-48.78,20.2-189.56,29.89-273.62,16.67-144.62-45.76-226-45.76-352.56C3220.29,1685.87,3270.05,1638.66,3341.78,1617Z"/><path fill="#e07472" fill-rule="evenodd" d="M3261.48,1965.05c30.47,2.76,58.12,9.53,82.61,20.68,99.12,45.09,124.73,151,125.59,240.2.53,53.87-7.42,111.9-23,169.44-98.07.24-209.93-9.61-210.48-28.54-1.4-48.78,20.2-189.56,29.89-273.62C3271.64,2044.74,3268.33,2003.39,3261.48,1965.05Z"/><path fill="#fdbc9e" fill-rule="evenodd" d="M3706.49,1327.14c-5.58,16.24-8.94,7.34-11.17-2.66-3.42-15.26-6.05-17.73-8.88-18.09-3.61-.45-5.1,5.39-4.55,20,.68,18,2.44,43.48,8.43,61.74,2,4.35,22.87,12.79,33.52,8.76,7.25-6.53,32.16-45.66,43.77-71.58,1.59-3.58,10.68-22.37-.08-11.3-4.61,4.73-12,11-9.57,2.83,2.69-9.06,7.28-23.89,6.26-32-.12-.94-2.79-4.34-5.45-.74-4.43,6-12.43,22.74-14.23,19.77-1.37-2.27,2.76-21.23,2.46-28.7-.14-3.51-4-3.5-6.3.32-4.84,7.85-9.12,28.15-12.93,27.55-5.19-.81-4.49-13.43-4.89-21-.33-6.06-3-6.75-6.22-1.08C3710,1292.85,3711.59,1312.32,3706.49,1327.14Z"/><path fill="#d95651" fill-rule="evenodd" d="M3565.91,1911.58c15.15-36.54,290.74-289.21,162.94-515.22-6-4.68-38.37-15.11-42.22-11.12-9.55,66.53-47.23,202.81-100.35,239.66-25.67,17.81-68.82-4.32-88.67-11.76-13.35,5.9-35,34.58-39.51,65C3447.89,1746.42,3490.87,1883.44,3565.91,1911.58Z"/><path fill="#de6864" fill-rule="evenodd" d="M3681,1691a493.62,493.62,0,0,0,31.68-72.25c18.14-53.26,24.09-107.07,11.54-159.14-19.87-82.46-28.08-76.22-45.12-10.62-18.21,70.07-50.56,153.47-94.18,183.73C3480.57,1705.1,3606.7,1830.67,3681,1691Z"/><path fill="#fcddcb" fill-rule="evenodd" d="M3406.47,2554.09c38.52-70.48,85.64-56.54,87.45,19.66,1.35,57.11-44.74,170.44-69.1,272.49h-34.31c8-23.5,11.86-43,14.5-67.47C3412.42,2710.14,3412,2632,3406.47,2554.09Z"/><path fill="#059283" fill-rule="evenodd" d="M3465.22,2838.72c-12.93,0-25.87,1.39-37.51,1.83-11.65-.44-24.59-1.83-37.52-1.83-18.26,0-33.07,13.05-33.07,29.15a26.1,26.1,0,0,0,2.22,10.52h136.73a25.94,25.94,0,0,0,2.23-10.52C3498.3,2851.77,3483.49,2838.72,3465.22,2838.72Z"/><path fill="#254b4b" fill-rule="evenodd" d="M3491.66,2887H3363.75a5.55,5.55,0,0,1-5.53-5.53v-3.11h139v3.11A5.55,5.55,0,0,1,3491.66,2887Z"/><path fill="#06807a" fill-rule="evenodd" d="M3437.31,2871c17.53,0,38.37,1.55,60,3.89a26,26,0,0,0,1-7c0-16.1-14.81-29.15-33.08-29.15-12.93,0-25.87,1.39-37.51,1.83-11.65-.44-24.59-1.83-37.52-1.83a37.14,37.14,0,0,0-7.37.73C3382.63,2854.94,3390.09,2871,3437.31,2871Z"/><path fill="#085f63" fill-rule="evenodd" d="M3495.32,1892.79H3067.27v33.52c0,9.51,9.56,17.29,21.25,17.29h385.55c11.69,0,21.25-7.78,21.25-17.29Z"/><path fill="#fdbc9e" fill-rule="evenodd" d="M3226.88,1950.3c8.21-11.41-4.11-33.84-16.44-20.54-5.24-9.34-13.19-13.15-24.58-4-6.64-11.87-14-11.19-24.47-1.94-9.11-15.91-21.3-3.31-25,7.28-5.37,14.47-1.56,21.32,6.58,24.77C3158.21,1962.28,3216.32,1965,3226.88,1950.3Z"/><path fill="#077f77" fill-rule="evenodd" d="M3291.94,1702.84H3014.13c-12.51,0-19.94,9.56-16.54,21.25l48.5,166.05c3.41,11.69,16.44,21.25,28.94,21.25h277.82c12.5,0,19.94-9.56,16.53-21.25l-48.5-166.05C3317.47,1712.4,3304.45,1702.84,3291.94,1702.84Z"/><path fill="#059283" fill-rule="evenodd" d="M3291.94,1702.84H3014.63c19.52,85.94,105.19,160.68,228.32,208.55h109.9c12.5,0,20-9.56,16.53-21.25l-48.5-166.05C3317.47,1712.4,3304.45,1702.84,3291.94,1702.84Z"/><path fill="#61dbc2" fill-rule="evenodd" d="M3156.36,1781.72a25.64,25.64,0,1,0-25.64-25.63A25.68,25.68,0,0,0,3156.36,1781.72Z"/><path fill="#fda380" fill-rule="evenodd" d="M3377,1552.93c5.87,41.49-6.38,72.33-28.23,71.15l0,.09c19.66,4.89,44,7.33,70.24,6.35,25.92-1,49.72-5.09,68.84-11.29-45.5-10.64-30.73-67.51-32.53-121.61C3425.76,1498.31,3415.18,1549.21,3377,1552.93Z"/><path fill="#fdbc9e" fill-rule="evenodd" d="M3378.46,1575c31.1-6,53.9,17,69.09,53.15-9.1,1.22-18.65,2.05-28.51,2.41-26.25,1-50.58-1.46-70.24-6.35l0-.09C3366.54,1625,3378,1604.84,3378.46,1575Z"/><path fill="#fcccb2" fill-rule="evenodd" d="M3314.65,1397.59c-11,34.72,5.14,103.86,13.71,126,12.38,31.91,16.14,42.4,44.31,41.35,38.78-1.43,86.48-42.19,84.54-94.54-2.24-60.61-24-102.55-92.79-98.12C3341.58,1373.71,3319.88,1381,3314.65,1397.59Z"/><path fill="#fcddcb" fill-rule="evenodd" d="M3323.91,1436c-3.14,30,7.56,74.62,13.64,90.29,10.1,26,13.16,34.6,36.15,33.75,31.66-1.18,70.58-34.44,69-77.16-.16-4.27-6.71-9.86-11.13-10.41-24.72-3.07-43.69-16.33-57.52-33.4-11.51-14.21-16-16.51-32.8-8.44A61.42,61.42,0,0,1,3323.91,1436Z"/><path fill="#fcccb2" fill-rule="evenodd" d="M3480.6,1464.51c3.51,13.61.17,23.45-9.35,33.86-7.84,8.56-18,13.78-23.29,6.51,1.16-12.78,3.38-44.54.55-53.82C3456,1441.53,3475.79,1445.79,3480.6,1464.51Z"/><path fill="#fda380" fill-rule="evenodd" d="M3463.22,1457.75c8,1.11,13.81,27.5-6.44,34.81a37.45,37.45,0,0,0,3.44-12.14c.61-4.67.82-13.48-1.28-19.47C3457.39,1456.56,3457.29,1456.94,3463.22,1457.75Z"/><path fill="#254b4b" fill-rule="evenodd" d="M3388.26,1407.52c-1.44,23.66,25.32,19.07,28.75,30.58,5.56,18.67,24.28,14.06,38.53,8.34-6.89-25.8,26-42.22,29.15-74.68,1.21-12.66-16.19-27.26-32.2-33.38-35.44-13.54-89.48-22.07-124.31-10.35-40.36,13.59-48.28,71.72-5.31,86.59C3343.2,1421.66,3379.69,1412.07,3388.26,1407.52Z"/></g><g data-name="1"><path fill="#fcccb2" fill-rule="evenodd" d="M1093.65,2740.65h-64.43a92.23,92.23,0,0,1,7.21,48.84h64.43C1091.45,2773.76,1089.45,2757.45,1093.65,2740.65Z"/><path fill="#fcccb2" fill-rule="evenodd" d="M797.82,2726.62l53.2,8.68c-7.79,12.19-14.5,32.49-7.53,47.58-17.73-2.89-40.47-14-58.2-16.9A52,52,0,0,0,797.82,2726.62Z"/><path fill="#fda380" fill-rule="evenodd" d="M980.37,1317.15a200.3,200.3,0,0,1,1.84,52c-2.35,23.07-8.5,43.56-24.55,54.59a679.09,679.09,0,0,0,67.87,3.31c2.82,0,5.61,0,8.39,0,5.49-10.52,8.28-23.46,9.7-37.34,2.62-25.76-.6-54.32-7.14-73.86q-5.43-.08-11-.08C1010,1315.72,994.89,1316.21,980.37,1317.15Z"/><path fill="#fdbc9e" fill-rule="evenodd" d="M972.55,1406.41a50,50,0,0,1-8.6,12c-1.24,1.85-2.42,3.71-3.56,5.55,20.42,2,42.33,3,65.14,3,2.82,0,5.61,0,8.39,0,5.49-10.52,8.28-23.46,9.7-37.34a190.22,190.22,0,0,0,.75-26.73c-2.78-3.09-5.77-4.82-8.91-4.82C1018.16,1358.11,992.13,1380.87,972.55,1406.41Z"/><path fill="#f1ecec" fill-rule="evenodd" d="M935.88,1872.58c-126.07-144.19-143.34-139.41-77.1-313.66,32.12-84.49,87.7-221.05,201.8-161.52q4.34,128.32,8.66,256.66Z"/><path fill="#ddcbc5" fill-rule="evenodd" d="M1061.07,1411.93l8.17,242.13L937.51,1869.91c-49.26-55.48-65.82-75.32-71-131.71C851.26,1572.71,983,1389.23,1061.07,1411.93Z"/><path fill="#3b82fd" fill-rule="evenodd" d="M1102.23,2752.65c-10.41,12.09-65.72,13.38-75.25,6.19-51.9-143-35.05-287.37-19-431.7,7.87-70.6,226.35-60.63,204.24,15.09C1171.67,2481.21,1119.19,2617.18,1102.23,2752.65Z"/><path fill="#2a60d4" fill-rule="evenodd" d="M992.3,2515.84c1.54-62.83,8.7-125.77,15.71-188.7,7.87-70.6,226.35-60.63,204.24,15.09-16.6,56.85-35.19,113.2-52.53,169.21C1105.2,2519.77,1049.52,2522,992.3,2515.84Z"/><path fill="#2e67d8" fill-rule="evenodd" d="M856.43,2738.71c-13,8.33-54.6,4.51-62.35-3.55-19.43-137.86,33.94-262.41,83.86-387.59,22.47-56.37,200.22,21.37,155.86,62.36C959,2479.09,915.13,2643.21,856.43,2738.71Z"/><path fill="#244eb8" fill-rule="evenodd" d="M828.82,2475.6c14.77-43,32.15-85.46,49.12-128,22.47-56.37,200.22,21.37,155.86,62.36-26.55,24.54-49.2,61-70,102.17A645.94,645.94,0,0,1,828.82,2475.6Z"/><path fill="#2a60d4" fill-rule="evenodd" d="M1152.82,2785.65c-55.1,0-95.45-12.63-103.94-12.63-16.09,0-29.13,12.4-29.13,27.7a27.32,27.32,0,0,0,12.6,22.81h152.36a23.35,23.35,0,0,0,2.3-10.05C1187,2798.11,1171.7,2785.65,1152.82,2785.65Z"/><path fill="#3b82fd" fill-rule="evenodd" d="M1152.82,2785.65c-55.1,0-95.45-12.63-103.94-12.63a30.14,30.14,0,0,0-12.28,2.58c28.29,30,93.27,41.38,149.79,43.17a22.65,22.65,0,0,0,.62-5.29C1187,2798.11,1171.7,2785.65,1152.82,2785.65Z"/><path fill="#a56d56" fill-rule="evenodd" d="M1179.38,2831.77H1035.86a5.29,5.29,0,0,1-5.28-5.27v-3h154.08v3A5.29,5.29,0,0,1,1179.38,2831.77Z"/><path fill="#2a60d4" fill-rule="evenodd" d="M888.93,2785.65q-7,0-13.6-.26c-46.32-6.6-78.28-27.49-85.49-28.84-15.8-3-30.91,6.79-33.75,21.82a27.33,27.33,0,0,0,8.15,24.75l67.43,20.41h89.14a23.2,23.2,0,0,0,2.3-10.05C923.11,2798.11,907.81,2785.65,888.93,2785.65Z"/><path fill="#3b82fd" fill-rule="evenodd" d="M888.93,2785.65q-7,0-13.6-.26c-46.32-6.6-78.28-27.49-85.49-28.84a30,30,0,0,0-13.87.6c-2.16,33.15,25.45,54,63.54,66.38h81.3a23.2,23.2,0,0,0,2.3-10.05C923.11,2798.11,907.81,2785.65,888.93,2785.65Z"/><path fill="#a56d56" fill-rule="evenodd" d="M831.67,2831.77l-65.51-19.9c-2.78-.84-4.75-3.31-4.21-6.16l.55-2.92,69.17,20.6v.14h89.1v3a5.29,5.29,0,0,1-5.28,5.27Z"/><path fill="#fdbc9e" fill-rule="evenodd" d="M1587,1283.31c-26.37,14.11-87.57,59.71-73.55,82.54,10.78,17.55,30.19,16,46.35,6.07,7-4.29,16.82-13.41,16.29-22.75,1.19-10.28,0-24.16,2.89-32.2a49.52,49.52,0,0,1,17.49-23.69c3.17-2.31,10.79-6.06,9.22-10.72C1603.23,1275.39,1591.4,1280.94,1587,1283.31Z"/><path fill="#e2d8d6" fill-rule="evenodd" d="M1230.49,2472.52c-128.57,30.44-262.83,30.4-408.33-29.89-6.34-23.19,58.18-79.38,74.05-206.17s-6.35-303.06-8.46-406.15c-1.8-87.47,10.52-434.39,149.57-434.2,59.5.08,120.79,64.09,133.93,147.63C1251,1846.13,1253.79,2157.76,1230.49,2472.52Z"/><path fill="#f1ecec" fill-rule="evenodd" d="M1230.49,2472.52c-78.71,18.64-159.56,25.84-243.81,14.8,6.64-30.87,47.84-94.46,47.54-207.34-.35-132.74-64.48-311.29-79.7-417.7-8.16-57-65.93-249.82-37.16-369.41,15.47-64.32,67.7-117,139.73-94.43,52.72,12.18,102.48,71,114.16,145.3C1251,1846.13,1253.79,2157.76,1230.49,2472.52Z"/><path fill="#fff" fill-rule="evenodd" d="M1146.77,2487.62c60.75-42.37,66.08-59.49,92.86-481.57,7.57,154.21,2.44,310-9.14,466.47A762.71,762.71,0,0,1,1146.77,2487.62Z"/><path fill="#e2d8d6" fill-rule="evenodd" d="M1154.09,1487.45a210.56,210.56,0,0,1,17.16,56.29q17.51,66.38,30.21,133.31c-69.16-24.66-141.9-72.13-212.7-145.28-61.39-64.85,7.27-141.31,71.82-105.07C1088.78,1448,1120,1469.11,1154.09,1487.45Z"/><path fill="#fff" fill-rule="evenodd" d="M1197.5,1838.18c-40.33,10.35-78.77,12.93-115.47,8.32-1.36.09-2.39,1.58-2.28,3.3,0,53.77,1.17,106.9,9.34,156,.11,1.72,1.3,3,2.66,2.94,37.94,4.88,76.12,6.56,115.47-8.32,1.36-.09,2.38-1.58,2.28-3.3,11.79-46,4.64-99.6-9.35-156C1200.05,1839.4,1198.85,1838.08,1197.5,1838.18Z"/><path fill="#f1ecec" fill-rule="evenodd" d="M988.76,1524.44c217.52,158.22,453.45,68.51,547.35-137.9,4.5-12.35-16.29-32.87-28.25-32.29-52.16,51.32-150.25,85.89-262.66,85.89-71.2,0-133-19.54-184.62-42.74C986.75,1367,920.16,1467.57,988.76,1524.44Z"/><path fill="#fff" fill-rule="evenodd" d="M1055.29,1404c61.59,27.35,125.16,44,193,44,84.59,0,188.29-20.4,258.76-74.09-37.82,73.79-98.34,134.85-176.37,165.69-112,44.25-228.69,14.27-323.23-55C970.54,1457.56,1018.24,1396.94,1055.29,1404Z"/><path fill="#fcccb2" fill-rule="evenodd" d="M1073.34,1191.12c-30.9,0-89.68,72.6-89.68,104s26.54,56.83,59.27,56.83c40.78,0,52.77-28.73,56.28-63.18C1103.76,1244.13,1090.78,1191.12,1073.34,1191.12Z"/><path fill="#202d5a" fill-rule="evenodd" d="M991.45,1148.6c-25.89,0-46.91,18.5-47.09,41.38-7.68,14.15-12.37,33-12.37,53.71,0,24.59,6.61,46.57,17,61.16a35.54,35.54,0,0,0-1,8.48c0,22,20.11,39.75,44.9,39.75s44.91-17.8,44.91-39.75a36.62,36.62,0,0,0-8.66-23.46c-9.33-11.26-.09-23.21,10.32-30.43,16.29-11.31-.89-52.67-.89-69.16C1038.54,1167.26,1017.46,1148.6,991.45,1148.6Z"/><path fill="#202d5a" fill-rule="evenodd" d="M1054.92,1143a88.33,88.33,0,0,0-31.36,15.72c-28.06,22.16-6.46,84.52,21.52,102.77,7.64,5,18.83-12.17,34.27-25.85,17.52-15.54,29-8.69,41.83-35.17,4.13-8.52,5.94-17.54,4.73-26.27C1122.21,1147.34,1089.87,1133.45,1054.92,1143Z"/><path fill="#fcccb2" fill-rule="evenodd" d="M1033.12,1251.07c-11.58-.13-15.55,11.7-16.61,22.81s7.89,20.48,15.86,20.48a9.22,9.22,0,0,0,6.76-2.93c.63-11,2.25-22.39,5.82-29.91C1043.64,1255.56,1040.24,1251.15,1033.12,1251.07Z"/><path fill="#fda380" fill-rule="evenodd" d="M1035.07,1259.42c-7.11-.08-9.55,7.19-10.2,14-.63,6.5,4.35,12,9.05,12.55a18.9,18.9,0,0,1-.66-7.08c.64-6.72,2.35-13.7,6.17-18.15A7.25,7.25,0,0,0,1035.07,1259.42Z"/><path fill="#3b82fd" fill-rule="evenodd" d="M806.93,2740.7C820.8,2537.85,909,2505,956.78,2526.29c-34.78,71.78-64.85,154.65-100.35,212.42C847.05,2744.74,822.63,2744.4,806.93,2740.7Z"/><path fill="#fcddcb" fill-rule="evenodd" d="M1063.52,1348.86c-48.12-.06,3.81-87.76,34.18-110.12a200.24,200.24,0,0,1,1.51,50C1096.38,1316.53,1088,1340.59,1063.52,1348.86Z"/></g></g></g></g></svg>