<svg xmlns="http://www.w3.org/2000/svg" enable-background="new 0 0 2000 2000" viewBox="0 0 2000 2000"><path fill="#e9eef8" fill-rule="evenodd" d="M997.6,1497.7c182,0,349.5,2.7,482.4,7.3c325.2-185.9,212.6-548.3,95.8-753.2    c-162.5-285.3-546.6-387.8-705.4-160.2c-215.6,308.9-423.6,201.1-535.9,435.8c-112.3,234.6,58.3,459.6,180.8,477.7    C648.2,1500.4,815.7,1497.7,997.6,1497.7L997.6,1497.7z M712.7,706.6C629.4,770,491.7,819.1,446,751.7    c-34.2-50.3,7.9-144.7,90.3-216.3c82.4-71.5,192.7-114.8,252.8-62.2C860.5,535.7,776.8,657.8,712.7,706.6z" clip-rule="evenodd"/><path fill="#d2deec" fill-rule="evenodd" d="M997.6,1497.7c432.1,0,782.4,15.3,782.4,34.3c0,18.9-350.3,34.3-782.4,34.3c-432.1,0-782.4-15.3-782.4-34.3    C215.3,1513,565.6,1497.7,997.6,1497.7z" clip-rule="evenodd"/><path fill="#fff" fill-rule="evenodd" d="M1249.9,551.8c195.4,43.5,319.7,223.2,331.9,310c5,35.6-4.3-47.7-103.9-123.6    c-89.1-67.8-158.4-80.4-264.4-88.5c-74.9-5.8-153.3-15-147.8-59.7C1070.2,554.8,1123.8,523.7,1249.9,551.8L1249.9,551.8z     M739,479.2c33.6,2,54.1,29.6,55.5,61.5c0.6,13.6-10-21.9-47.3-26.8c-23.1-3.1-26.6,3.8-34.9-5.8C704,498.5,711.9,477.5,739,479.2    z" clip-rule="evenodd"/><path fill="#d2deec" fill-rule="evenodd" d="M493.7,1418.7c-8.9-11.2-21.5-20.4-25.2-34.2c-4.3-16.3,5.2-33.5,2.9-50.2c-3-21-23.2-34.7-34.2-52.8    c-10.8-17.8-5.7-23.8-6.7-44.6c-1.5-31.3-27.1-70.8-61.4-60.2c-34.7,10.8-29.1,43.1-22.9,67.3c4.4,17.3,1.5,19.8-2.7,37.1    c-5.1,20.9-21.6,41.2-14.7,61.6c4.3,12.6,16.6,21.1,21.1,33.7c5.1,14.2-1.1,29.6-3.4,44.6c-5,31.4,2.2,57.5,25,83.4    c2.5,2.3,5,4.5,7.6,6.5c31.9-1.8,67.9-3.5,107.3-5l0.3-0.3C507.5,1482.9,513.7,1443.8,493.7,1418.7z" clip-rule="evenodd"/><path fill="#fff" fill-rule="evenodd" d="M384.9,1205c-0.5-1.4-2.1-2.1-3.5-1.6c-1.4,0.5-2.1,2.1-1.6,3.5c2.7,7.1,5,14.5,6.9,22.3    c-0.8-0.7-1.6-1.4-2.4-2.1c-3.7-3-8-5.6-12.7-7.8c-1.4-0.6-3-0.1-3.6,1.3c-0.6,1.4-0.1,3,1.3,3.6c4.3,2.1,8.2,4.4,11.6,7.2    c3.2,2.6,6,5.5,8.4,8.6c3.5,16.7,5.8,34.8,7.9,53.7c-3.2-4.9-6.6-9.4-10.2-13.3c-6.3-6.8-13.2-12.1-20.8-15.9    c-1.4-0.7-3-0.1-3.7,1.2c-0.7,1.4-0.1,3,1.2,3.7c7,3.5,13.4,8.4,19.2,14.7c5.8,6.3,11,14,15.6,23.1l0.5,5.2    c1.2,11.3,2.4,22.9,3.8,34.8c0,0.1,0,0.2,0,0.3c1.5,12.4,3.2,25,5.4,37.9c-5.9-9.2-12.3-17.2-19.1-24.3    c-10-10.3-21-18.3-32.9-24.1c-1.4-0.7-3-0.1-3.7,1.3c-0.7,1.4-0.1,3,1.3,3.7c11.4,5.5,21.8,13.1,31.4,23    c9.5,9.8,18.2,21.8,25.9,36c3.4,17,7.7,34.4,13.4,51.9l0,0l0,0.1v0c2.8,8.6,5.9,17.3,9.5,25.9c-8.3-7.1-17.1-13.3-26.4-18.5    c-13-7.2-27-12.6-41.9-16c-1.5-0.3-3,0.6-3.3,2.1c-0.3,1.5,0.6,3,2.1,3.3c14.4,3.3,27.9,8.5,40.4,15.5c12.4,6.9,23.9,15.6,34.4,26    c2.4,5.4,5,10.8,7.8,16.2l6-0.3c-9.7-18.7-17.3-37.3-23.3-55.7c-1-13.4,0.6-26.8,4.8-40.1c4.3-13.6,11.2-27.2,20.9-40.8    c0.9-1.2,0.6-2.9-0.7-3.8c-1.2-0.9-2.9-0.6-3.8,0.7c-10,14.1-17.2,28.2-21.6,42.3c-2.5,8-4.1,16-4.9,24    c-8.2-29.7-12.8-58.8-16.1-86.5c3.2-11.8,6.8-21.7,10.8-29.8c3.9-8.1,8.2-14.3,12.9-18.7c1.1-1,1.1-2.8,0.1-3.9    c-1-1.1-2.8-1.1-3.9-0.1c-5.1,4.9-9.8,11.6-14.1,20.3c-2.6,5.4-5.1,11.6-7.4,18.5c-0.8-7.3-1.5-14.5-2.3-21.7l-0.6-5.5    c0-0.1,0-0.2,0-0.3C399.9,1268.5,396,1234.2,384.9,1205z" clip-rule="evenodd"/><path fill="#c4def3" fill-rule="evenodd" d="M401.8,1433.5c-9.5-5.1-21-7.8-27.7-16.4c-7.9-10.1-6.3-24.9-12.9-35.8c-8.3-13.8-26.4-17.3-39.5-26.7    c-12.8-9.2-11-14.9-17.9-29c-10.3-21.4-39.9-41.3-60.6-23.8c-21,17.8-7.5,38.6,4,53.7c8.2,10.8,6.9,13.3,9.1,26.7    c2.6,16.1-2.8,35.1,8,47.2c6.7,7.5,17.9,9.8,24.7,17.2c7.7,8.4,8,21,10.8,32c3.7,14.7,10.1,26.5,20.2,36.1    c27.4-2.1,59.5-4,95.8-5.8c2.8-4,5-8.3,6.7-12.9C430.5,1474.1,423.2,1445,401.8,1433.5z" clip-rule="evenodd"/><path fill="#fff" fill-rule="evenodd" d="M262.7,1316.8c-0.8-0.8-2.1-0.8-2.9-0.1c-0.8,0.8-0.8,2.1-0.1,2.9c4,4.1,7.8,8.6,11.4,13.4    c-0.8-0.3-1.5-0.5-2.3-0.7c-3.5-1-7.2-1.5-11.2-1.7c-1.1,0-2.1,0.9-2.2,2c0,1.1,0.9,2.1,2,2.2c3.6,0.1,7,0.7,10.2,1.6    c3,0.8,5.8,2,8.4,3.5c7.4,10.6,14.3,22.5,21.4,35.1c-3.7-2.5-7.4-4.6-11-6.2c-6.4-2.9-12.8-4.5-19.2-4.9c-1.1-0.1-2.1,0.8-2.2,2    c-0.1,1.1,0.8,2.1,1.9,2.2c5.9,0.3,11.8,1.9,17.7,4.5c5.9,2.7,11.8,6.5,17.7,11.5l1.9,3.4c4.2,7.5,8.4,15.3,12.9,23.1    c0,0.1,0.1,0.2,0.1,0.2c4.7,8.2,9.7,16.5,15,24.8c-6.8-4.6-13.7-8.4-20.5-11.2c-10-4.2-20.1-6.6-30.1-7c-1.1-0.1-2.1,0.8-2.2,2    c-0.1,1.1,0.8,2.1,2,2.2c9.5,0.4,19.1,2.7,28.7,6.7c9.5,4,19.1,9.8,28.7,17.4c7.4,10.9,15.5,21.7,24.7,32.2l0,0l0,0l0,0    c4.5,5.2,9.3,10.3,14.3,15.3c-7.9-2.5-15.9-4.2-23.9-5c-11.2-1.2-22.5-0.8-33.9,1.2c-1.1,0.2-1.9,1.3-1.7,2.4    c0.2,1.1,1.3,1.9,2.4,1.7c11.1-2,22-2.4,32.8-1.2c10.7,1.1,21.2,3.8,31.7,8c3.6,3.3,7.4,6.6,11.3,9.8l6.2-0.3    c-13.6-10.9-25.4-22.4-35.8-34.4c-4.7-9-7.5-18.8-8.6-29.4c-1.1-10.7-0.2-22.2,2.5-34.6c0.2-1.1-0.5-2.2-1.6-2.5    c-1.1-0.2-2.2,0.5-2.5,1.6c-2.8,12.8-3.6,24.7-2.5,35.9c0.6,6.3,1.9,12.4,3.7,18.2c-14.5-18.3-26.3-37.2-36.9-55.5    c-1.2-9.1-1.7-17.1-1.3-24c0.4-6.8,1.5-12.4,3.4-16.9c0.5-1.1,0-2.3-1.1-2.7c-1.1-0.5-2.3,0-2.7,1.1c-2.1,4.9-3.4,11-3.8,18.3    c-0.2,4.5-0.1,9.6,0.3,15.1c-2.7-4.9-5.4-9.7-8-14.4l-2-3.7c0-0.1-0.1-0.1-0.1-0.2C292,1356.6,279.1,1333.8,262.7,1316.8z" clip-rule="evenodd"/><path fill="#d2deec" fill-rule="evenodd" d="M1467.1,1408.1c9.7-12.2,23.4-22.3,27.5-37.3c4.7-17.8-5.7-36.5-3.1-54.7c3.3-22.9,25.4-37.8,37.3-57.6    c11.7-19.4,6.2-26,7.3-48.6c1.6-34.2,29.6-77.3,67-65.7c37.9,11.8,31.7,47,25,73.5c-4.8,18.9-1.6,21.6,3,40.5    c5.6,22.8,23.6,44.9,16,67.2c-4.6,13.8-18.2,23.1-23,36.8c-5.5,15.5,1.2,32.3,3.7,48.6c5.4,34.3-2.4,62.8-27.3,91    c-3,2.9-6.2,5.5-9.4,7.9c-34.4-1.8-72.8-3.4-114.6-4.8c-0.6-0.6-1.1-1.2-1.7-1.8C1452,1478.2,1445.2,1435.5,1467.1,1408.1z" clip-rule="evenodd"/><path fill="#fff" fill-rule="evenodd" d="M1585.8,1175c0.6-1.5,2.3-2.3,3.9-1.7c1.5,0.6,2.3,2.3,1.7,3.9c-3,7.7-5.4,15.8-7.6,24.3    c0.9-0.8,1.7-1.5,2.7-2.3c4.1-3.3,8.7-6.1,13.8-8.6c1.5-0.7,3.3-0.1,4,1.4c0.7,1.5,0.1,3.3-1.4,4c-4.7,2.2-9,4.8-12.7,7.8    c-3.5,2.8-6.5,6-9.1,9.4c-3.8,18.3-6.3,37.9-8.6,58.6c3.5-5.4,7.2-10.2,11.1-14.5c6.8-7.4,14.4-13.2,22.7-17.3    c1.5-0.7,3.3-0.1,4,1.3c0.7,1.5,0.1,3.3-1.3,4c-7.6,3.8-14.6,9.1-21,16c-6.3,6.9-12,15.3-17.1,25.2l-0.6,5.6    c-1.3,12.3-2.6,25-4.1,37.9c0,0.1,0,0.3,0,0.4c-1.6,13.5-3.5,27.3-5.9,41.4c6.5-10,13.4-18.8,20.9-26.5    c10.9-11.2,22.9-20,35.9-26.3c1.5-0.7,3.3-0.1,4,1.4c0.7,1.5,0.1,3.3-1.4,4c-12.4,6-23.8,14.3-34.2,25.1    c-10.4,10.7-19.8,23.8-28.3,39.2c-3.7,18.6-8.4,37.5-14.6,56.7l0,0l0,0.1l0,0c-3.1,9.4-6.5,18.8-10.3,28.3    c9.1-7.8,18.7-14.5,28.9-20.2c14.2-7.9,29.4-13.7,45.7-17.5c1.6-0.4,3.2,0.6,3.6,2.2c0.4,1.6-0.6,3.2-2.2,3.6    c-15.8,3.7-30.5,9.3-44.1,16.9c-13.5,7.5-26,17-37.5,28.4c-2.8,6.3-5.9,12.6-9.1,18.9l-6.6-0.3c10.9-20.8,19.4-41.5,26.1-62    c1.1-14.6-0.6-29.2-5.2-43.8c-4.7-14.8-12.2-29.6-22.8-44.5c-1-1.3-0.6-3.2,0.7-4.2c1.3-1,3.2-0.6,4.2,0.7    c10.9,15.4,18.8,30.7,23.6,46.1c2.8,8.7,4.5,17.5,5.3,26.2c9-32.4,14-64.1,17.6-94.4c-3.5-12.8-7.4-23.7-11.8-32.6    c-4.3-8.8-9-15.6-14.1-20.4c-1.2-1.1-1.3-3-0.1-4.2c1.1-1.2,3-1.3,4.2-0.1c5.6,5.3,10.7,12.7,15.3,22.2c2.9,5.9,5.6,12.6,8.1,20.2    c0.9-8,1.7-15.9,2.5-23.6l0.6-6c0-0.1,0-0.2,0-0.3C1569.4,1244.2,1573.7,1206.7,1585.8,1175z" clip-rule="evenodd"/><path fill="#c4def3" fill-rule="evenodd" d="M1567.3,1424.2c10.4-5.6,22.9-8.6,30.2-17.9c8.6-11,6.8-27.1,14-39.1c9.1-15,28.9-18.8,43.1-29.1    c13.9-10,12-16.2,19.5-31.7c11.2-23.3,43.5-45,66.1-25.9c22.9,19.4,8.2,42.1-4.3,58.6c-8.9,11.7-7.5,14.5-9.9,29.1    c-2.9,17.6,3.1,38.3-8.7,51.6c-7.3,8.2-19.5,10.7-26.9,18.8c-8.5,9.2-8.8,22.9-11.8,35c-4.1,16.3-11.2,29.3-22.6,39.9    c-29.9-2-64.6-3.9-103.3-5.6c-3.4-4.6-6.2-9.8-8.1-15.2C1536.1,1468.5,1544,1436.8,1567.3,1424.2z" clip-rule="evenodd"/><path fill="#fff" fill-rule="evenodd" d="M1719.1,1297c0.9-0.9,2.3-0.9,3.2-0.1c0.9,0.9,0.9,2.3,0.1,3.2c-4.4,4.5-8.5,9.4-12.5,14.7    c0.8-0.3,1.7-0.5,2.5-0.8c3.8-1.1,7.9-1.7,12.2-1.9c1.3,0,2.3,0.9,2.4,2.2c0,1.2-0.9,2.3-2.2,2.3c-4,0.2-7.7,0.7-11.1,1.7    c-3.3,0.9-6.3,2.2-9.1,3.9c-8.1,11.6-15.6,24.5-23.4,38.3c4-2.7,8-5,12-6.8c7-3.2,14-4.9,21-5.3c1.2-0.1,2.3,0.9,2.4,2.1    c0.1,1.2-0.9,2.3-2.1,2.4c-6.4,0.4-12.9,2-19.4,5c-6.4,2.9-12.9,7.1-19.4,12.5l-2.1,3.7c-4.5,8.2-9.2,16.7-14.1,25.2    c0,0.1-0.1,0.2-0.1,0.2c-5.1,8.9-10.5,18-16.3,27.1c7.5-5,14.9-9.1,22.4-12.3c10.9-4.6,21.9-7.2,32.8-7.7c1.3-0.1,2.3,0.9,2.4,2.2    c0.1,1.3-0.9,2.3-2.2,2.4c-10.4,0.5-20.8,2.9-31.3,7.3c-10.4,4.4-20.9,10.7-31.3,19c-8.1,11.9-17,23.7-27,35.2l0,0l0,0l0,0    c-4.9,5.6-10.1,11.2-15.6,16.7c8.6-2.7,17.3-4.6,26.1-5.5c12.2-1.3,24.6-0.9,37,1.3c1.2,0.2,2.1,1.4,1.8,2.6    c-0.2,1.2-1.4,2.1-2.6,1.8c-12.1-2.1-24-2.6-35.7-1.3c-11.6,1.2-23.2,4.1-34.6,8.7c-4.3,4-8.7,7.8-13.4,11.7l-6.8-0.3    c15.3-12.1,28.6-25.1,40.3-38.5c5.1-9.8,8.2-20.5,9.4-32c1.1-11.7,0.2-24.3-2.7-37.7c-0.3-1.2,0.5-2.4,1.7-2.7    c1.2-0.3,2.4,0.5,2.7,1.7c3,13.9,4,27,2.8,39.1c-0.7,6.9-2,13.5-4.1,19.9c15.9-19.9,28.7-40.5,40.2-60.6c1.4-10,1.8-18.7,1.4-26.2    c-0.4-7.4-1.6-13.6-3.7-18.4c-0.5-1.1,0-2.5,1.2-3c1.1-0.5,2.5,0,3,1.2c2.3,5.3,3.7,12,4.1,20c0.3,5,0.1,10.4-0.3,16.5    c3-5.3,5.9-10.6,8.7-15.7l2.2-4c0-0.1,0.1-0.1,0.1-0.2C1687.1,1340.3,1701.2,1315.5,1719.1,1297z" clip-rule="evenodd"/><path fill="#fff" fill-rule="evenodd" d="M940.8,677.1c-2.8,38.4-8.5,43.7-45.1,46.7c36.6,3,42.3,8.3,45.1,46.7c2.8-38.4,8.5-43.7,45.1-46.7    C949.3,720.8,943.6,715.5,940.8,677.1L940.8,677.1z M1089.8,778.4c-1.5,20.5-4.5,23.3-24.1,24.9c19.6,1.6,22.6,4.4,24.1,24.9    c1.5-20.5,4.5-23.3,24.1-24.9C1094.3,801.8,1091.3,799,1089.8,778.4L1089.8,778.4z M1024.5,620.5c-1.5,20.8-4.6,23.6-24.4,25.2    c19.8,1.6,22.9,4.5,24.4,25.2c1.5-20.8,4.6-23.6,24.4-25.2C1029.1,644.2,1026.1,641.3,1024.5,620.5z" clip-rule="evenodd"/><path fill="#fff" fill-rule="evenodd" d="M886.8,1307.2c2.3,31.1,6.9,35.4,36.5,37.8c-29.7,2.4-34.3,6.7-36.5,37.8c-2.3-31.1-6.9-35.4-36.5-37.8    C880,1342.6,884.6,1338.3,886.8,1307.2L886.8,1307.2z M766.2,1389.3c1.2,16.6,3.7,18.9,19.5,20.2c-15.8,1.3-18.3,3.6-19.5,20.2    c-1.2-16.6-3.7-18.9-19.5-20.2C762.5,1408.2,764.9,1405.9,766.2,1389.3L766.2,1389.3z M819,1261.4c1.2,16.8,3.7,19.2,19.8,20.5    c-16.1,1.3-18.5,3.6-19.8,20.5c-1.2-16.8-3.7-19.2-19.8-20.5C815.3,1280.5,817.8,1278.2,819,1261.4z" clip-rule="evenodd"/><path fill="#fff" fill-rule="evenodd" d="M1361,1230.4c-1.7,23.8-5.3,27.1-28,29c22.7,1.8,26.2,5.1,28,29c1.7-23.8,5.3-27.1,28-29    C1366.3,1257.5,1362.8,1254.3,1361,1230.4L1361,1230.4z M1453.4,1293.3c-0.9,12.7-2.8,14.5-14.9,15.5c12.1,1,14,2.7,14.9,15.5    c0.9-12.7,2.8-14.5,14.9-15.5C1456.2,1307.8,1454.3,1306,1453.4,1293.3L1453.4,1293.3z M1413,1195.3c-0.9,12.9-2.8,14.7-15.1,15.7    c12.3,1,14.2,2.8,15.1,15.7c0.9-12.9,2.8-14.7,15.1-15.7C1415.8,1210,1413.9,1208.2,1413,1195.3z" clip-rule="evenodd"/><path fill="#88b9e3" fill-rule="evenodd" d="M1486.6,858.4c7.5,4.3,9.8,11.4,14.9,14c14.7,1.4,29.2,2.5,36.1,7.3c27,32.6,48.8,61.5,65.4,86.6    c13.8,20.3-32.6,78.5-46.3,87.5l-19.4-12.8c-3.2-2.1,29.6-51.2,34-58.8c-19.4-17-39.1-34.2-51.5-48.4c2.3,18.7-4.5,45.2-20.3,79.6    c-55,3.6-86.6,2.7-94.7-2.6c-2.7-15.4-4.8-32.2-6.4-50.4c-12.6,11.3-22.9,21.3-30.7,30.1c-7.2,2.4-32,5-55.2,5.4    c-21,0.4-40.5-1.4-46.4-1.1c-7.1,0.3-5.2-3.7-7.1-6c-4.5-5.3-3.7-12.4-6-16.6c5.6,1,90.7-15.9,98.5-18.4    c22.5-32,42.6-57,58.9-76.7c12.7-3,21.4-5.4,27.6-5.6c2.7-3.1,6.6-5.9,11.9-8.1c-3.1,16.8-2.4,30.2,2.8,45.8    C1477,891.8,1483.6,874.2,1486.6,858.4z" clip-rule="evenodd"/><path fill="#263c84" fill-rule="evenodd" d="M1464,781.2c0,0,0.3,8.6-3.6,10.3c-3.9,1.7-0.5,26-1.2,38.5c-0.8,16.7,0.3,32.9-1,49.5L1445,889    c0.1-6.1,0.3-11.3,0.2-16.3c0,1.8-0.3,9.3-0.7,16.7l-14.9,8.7c4.7-43.4,2.5-46.1,4.9-98.5C1434.3,796.1,1464,781.2,1464,781.2z" clip-rule="evenodd"/><path fill="#f9af79" fill-rule="evenodd" d="M1531.3,1481.2c-2.4,20.7,32.5,30.8,30.2-14.2c-0.1-1.9-0.2-4.1-0.4-6.4c-1.4-18.3-5.3-47.7-5-66.2    c0.7-47.3-3.5-87.6-12.6-120.8c-16.9,3-32.8,5.2-47.5,6.7c8,27.6,14.9,52.9,20.7,75.9c7.2,28.2,20.6,69.8,17.2,98.4    c-0.7,6.1-1.2,12.1-1.7,17.8C1531.9,1475.4,1531.6,1478.3,1531.3,1481.2z" clip-rule="evenodd"/><path fill="#f9af79" fill-rule="evenodd" d="M1400.7,1277c2.3,90.8,10.7,171.7-4.5,210.8c4.2,2.7-2.1,9.4,4.4,11.1c17.3-9.5,26.9-35.3,33.9-46.7    c0-0.1,0.1-0.1,0.1-0.2c-1-2.4-1.7-5.2-2.1-8.3c0.3-75.3,19.1-121.7,15.5-161C1429.7,1282.4,1413.9,1280.5,1400.7,1277z" clip-rule="evenodd"/><path fill="#4361ac" fill-rule="evenodd" d="M1527.4,1157.8c11.4-70.7,2.2-118.8-27.8-144.3c-46.5,3-81.7,0.7-94.7-2.6c-0.1,5,0.1,17.4-0.9,25.1    c-8.1,59.6-16.1,309.7-14.8,400.5c32.8,11.5,103.1,12.5,173,0c-5-22.1,3.4-93.4-18.7-180.3    C1533,1214.4,1529.2,1173.3,1527.4,1157.8z" clip-rule="evenodd"/><path fill="#263c84" fill-rule="evenodd" d="M1517.2,801.1c0.3,11-2.1,32.1-2.5,45c-0.4,13.8,1.2,34.1,0.3,47.9l-13,8.3c-0.1-5.1,0-9.4-0.2-13.5    c0,1.5,0,7.7-0.3,13.8l-14.7,7.7c3.5-36,1.3-45.1,2.2-88.5C1488.6,819,1517.2,801.1,1517.2,801.1z" clip-rule="evenodd"/><path fill="#f9af79" fill-rule="evenodd" d="M1253.9,993.8c64.5-19.8,76.2-1.1,93.6-3.5c-4.5-10.6-9.1-20.1-13.6-28.8c-33.8,5.3-37.3,13.4-87.1,12.9    c-8.9-6.1-18.7-10.1-24.7-9c-1.6,3.8,0.1,6.5,5.3,8.2c1.4,1.9,2,3.8,1.7,5.4c-12.9,5.5-24.3,8.9-34.1,10.2    c-1.1,11.6,6,19,21.6,22.2C1232.3,1007.4,1244.8,1001.5,1253.9,993.8z" clip-rule="evenodd"/><path fill="#f9af79" fill-rule="evenodd" d="M1563,997.8c-9.6,19.6-20.8,39.1-32,54.6c-2.6-2.7-5-8.7-8.7-11c-1.4-0.9-3.7,1.4-5.3,0.7    c-7.3-3.4-15.4-4.4-22,0.5c-1.6,1.2-2.5,3.6-2.8,9.4c0.3,7.9,6.9,9.3,16,5.6c12.2,13.4,20.4,17.7,27.1,13    c30.2-27.1,50.2-49.6,60-67.4C1585.3,995.6,1574.5,993.8,1563,997.8z" clip-rule="evenodd"/><path fill="#263c84" fill-rule="evenodd" d="M1441.9,765.3l45,68.3c0,0,5.1-10.1,10.9-6.5c8.9,5.6,25.7-14,21.7-41.2c-6.4-43-47.5-45-67.2-33.4    C1447.3,755.5,1443,761.5,1441.9,765.3z" clip-rule="evenodd"/><path fill="#f9af79" fill-rule="evenodd" d="M1422.1,903.3c3.8,3.4,12.3-8.6,19.5-8.9c4.9-0.2,8.9,9.9,11.4,15c5.6-1.8,16.6-15.1,23-15.1    c23.5,0.2,33.4,1.5,40.5-16.5c-5.2-4-10.3-5.4-13.3-6.2c-2.9-0.8-6-1.4-8.6-1.9c-4.1-4.2-9-19.5-7.5-42.2l-2,0.3l-33.5,4.4    c0,0,0.1,10.5-0.5,20.3c-0.5,7.7-1.4,14.9-3.1,16.5c-2.6,0.2-4.2,0.4-4.2,0.4l0,0C1443.3,870.1,1431.8,884.3,1422.1,903.3z" clip-rule="evenodd"/><path fill="#ed7d57" fill-rule="evenodd" d="M1451.6,832.3c0,0,0.1,10.5-0.5,20.3c18.6,0.7,29.5-15.6,34.1-24.8L1451.6,832.3z" clip-rule="evenodd"/><path fill="#f9af79" fill-rule="evenodd" d="M1446.6,848.9c0,0,43.5-3.9,43.7-31.6c1.8-27.3,8.6-45.3-19.3-48.7c-27.9-3.4-34,6.7-36.8,15.6    C1431.5,793.3,1435.3,847.3,1446.6,848.9z" clip-rule="evenodd"/><path fill="#263c84" fill-rule="evenodd" d="M1436.5,769.3c7.3-7.8,12.3-5.7,15-3c24.8-11.7,39,8.8,39,8.8c1.7,19.8,15.1,31.9,15.1,31.9    s-8.3,4.4-26.4-1.5c-5.5-1.8-10.3-6.1-14.3-11.3c6.7,13,16.2,22.6,16.2,22.6c-21.4-11.6-28.3-42.8-28.9-46.1    c-17.1,13.5-11.6,18.6-19,32.5C1433.2,803.3,1425.6,780.9,1436.5,769.3z" clip-rule="evenodd"/><path fill="#29488c" fill-rule="evenodd" d="M1475.1,923.1c0-0.3-0.2-0.5-0.5-0.5c-0.3,0-0.5,0.2-0.5,0.5c0,0.3,0.2,0.5,0.5,0.5    C1474.9,923.6,1475.1,923.4,1475.1,923.1z" clip-rule="evenodd"/><path fill="#29488c" fill-rule="evenodd" d="M1471.7,923.1c0-0.3-0.2-0.5-0.5-0.5c-0.3,0-0.5,0.2-0.5,0.5c0,0.3,0.2,0.5,0.5,0.5    C1471.4,923.6,1471.7,923.4,1471.7,923.1z" clip-rule="evenodd"/><path fill="#6d96ce" fill-rule="evenodd" d="M1423.4,919.8c0.6-1.9-0.4-4-2.4-4.6c-1.9-0.6-4,0.4-4.6,2.4c-0.6,1.9,0.5,4,2.4,4.6    C1420.8,922.7,1422.8,921.7,1423.4,919.8z" clip-rule="evenodd"/><path fill="#fff" fill-rule="evenodd" d="M1422.8,919.6c0.6-1.9-0.5-3.9-2.4-4.6c-1.9-0.6-4,0.5-4.6,2.4c-0.6,1.9,0.5,4,2.4,4.6    S1422.2,921.5,1422.8,919.6z" clip-rule="evenodd"/><path fill="#fff" fill-rule="evenodd" d="M1440.3,871.5c-7.7-0.7-17.8,0.2-26.1,3.3c-6.3,2.4-11,5.5-15.2,13.5c-1.3,20.7-10.1,42.5-8.3,64.3    c1.7,20.3,12,33.7,12.7,55.6c1.8,52.4-17.5,118.1-17.6,157.5c35.8,1.3,42.5,1.4,42.5,1.4c12.5-167.6,15.5-257.3,16.7-269.7    C1446.7,890.6,1443.9,894.3,1440.3,871.5z" clip-rule="evenodd"/><path fill="#29488c" fill-rule="evenodd" d="M1421.6,918.5c0-0.3-0.2-0.5-0.5-0.5c-0.3,0-0.5,0.2-0.5,0.5s0.2,0.5,0.5,0.5    C1421.4,919,1421.6,918.8,1421.6,918.5z" clip-rule="evenodd"/><path fill="#29488c" fill-rule="evenodd" d="M1418.2,918.5c0-0.3-0.2-0.5-0.5-0.5c-0.3,0-0.5,0.2-0.5,0.5c0,0.3,0.2,0.5,0.5,0.5    C1417.9,919,1418.2,918.8,1418.2,918.5z" clip-rule="evenodd"/><path fill="#5e9bd3" fill-rule="evenodd" d="M1438.3,871.6c-2.8,8.3-4.3,15.1-4.5,20.6c3.2-2.6,5.6-4.3,7.2-5.3c8.2,20.3,9.4,19.4,12,22.5    c-4-13.5-8.5-28.2-2.8-45.8C1444.9,865.8,1441,868.5,1438.3,871.6z" clip-rule="evenodd"/><path fill="#5e9bd3" fill-rule="evenodd" d="M1486.6,858.4c-3,15.8-9.7,33.4-33.7,51c14.4-5.1,23.2-12.2,32.2-28.8c1.5,5.6,3.4,12.2,5.6,19.7    c6.2-7.7,9.8-17,10.7-27.9C1496.4,869.8,1494.1,862.7,1486.6,858.4z" clip-rule="evenodd"/><path fill="#263c84" fill-rule="evenodd" d="M1532.2,1472.4c-8.4,31.5-5.6,48.2,10.3,50.5c21.1,1.5,26.8-19.3,18.6-62.3c0.2,2.3,0.3,4.5,0.4,6.4    c2.3,45-32.6,34.9-30.2,14.2C1531.6,1478.3,1531.9,1475.4,1532.2,1472.4z" clip-rule="evenodd"/><path fill="#263c84" fill-rule="evenodd" d="M1391.6,1486.7c12.2,0.7,1.1,10.1,9,12.3c17.3-9.5,26.9-35.3,33.9-46.7c3.6-6,6.3,1.6,8.1,10.2    c3.9,18.4,3.7,42.6-0.6,50.1c-3.2-5.5-5.9-22.5-8.8-32.9c-17,15.1-13.3,31.8-23.4,37.5c-24.2,2.7-37.3,3.3-55.7,3.7    C1350.1,1505.2,1382,1510.5,1391.6,1486.7z" clip-rule="evenodd"/><path fill="#5e9bd3" fill-rule="evenodd" d="M1266.2,994.7c-2.5-8.7-2.3-14.8-9-23.6c-4.5,1-8.1,0.5-10.8,1.9c5.6,5.8,9.1,12.6,9,21.4    c0.1,0.2,0.2,0.4,0.2,0.6C1259.9,995.9,1262.3,995.6,1266.2,994.7z" clip-rule="evenodd"/><path fill="#5e9bd3" fill-rule="evenodd" d="M1537.2,1039.9c-2.3,2.7-1.9,3.4-2.1,6.5c0,0.1,0.1,0,0.2,0c6.4,1.1,11.4,4.6,14.8,10.7    c0.9,1.6,3-0.7,8.7-4.4C1552.3,1043.9,1545.2,1040.3,1537.2,1039.9z" clip-rule="evenodd"/><path fill="#5e9bd3" fill-rule="evenodd" d="M1453,909.9c-3.1,5.8-4.9,14.8-5.6,21.3c-0.8,7.8-0.3,15.8,1.2,23.5c1.1,5.4,1.5,11,1.6,16.6    c0.1,6.1-0.2,12.2-1,18.2c-1.1,8-1.5,15.7-1.4,23.8l0,0.3c0,0.2-0.1,0.3-0.3,0.3c-0.2,0-0.3-0.1-0.3-0.3l0-0.3    c-0.1-8.1,0.3-15.8,1.4-23.9c0.8-6,1.1-12.1,1-18.1c-0.1-5.5-0.6-11.1-1.6-16.4c-1.6-7.8-2-15.8-1.2-23.7    c0.6-6.5,2.5-15.6,5.6-21.5c0.1-0.2,0.3-0.2,0.4-0.1C1453,909.5,1453.1,909.7,1453,909.9z" clip-rule="evenodd"/><path fill="#263c84" fill-rule="evenodd" d="M1450,863c-0.7,12.4,0.1,30.7-1.3,43l-4,3.6c0.1-4.6,0.4-8.6,0.2-12.4c0,1.4-0.3,7-0.7,12.6l-15,6.6    c2.8-19.7,2.6-34.7,3-46.9L1450,863z" clip-rule="evenodd"/><path fill="#263c84" fill-rule="evenodd" d="M1443.5,767.4c3.1-1.8,4.2-3.8,3.2-6.1c-4.7-2.3-9.2-2.6-13.5-0.7C1435.8,760.8,1439.2,763.1,1443.5,767.4z" clip-rule="evenodd"/><path fill="#263c84" fill-rule="evenodd" d="M1450.3,766.8c-2.6,2.5-4.8,3-6.7,1.4c-0.9-5.1,0.1-9.5,3-13.2C1446.1,757.5,1447.3,761.5,1450.3,766.8z" clip-rule="evenodd"/><path fill="#5e9bd3" fill-rule="evenodd" d="M1456.1,913c0.7,0,1.4-0.6,1.4-1.4c0-0.7-0.6-1.4-1.4-1.4c-0.7,0-1.4,0.6-1.4,1.4    C1454.8,912.4,1455.4,913,1456.1,913z" clip-rule="evenodd"/><path fill="#5e9bd3" fill-rule="evenodd" d="M1451.8,935c0.7,0,1.3-0.6,1.3-1.4c0-0.7-0.6-1.4-1.3-1.4c-0.7,0-1.4,0.6-1.4,1.4    C1450.5,934.4,1451.1,935,1451.8,935z" clip-rule="evenodd"/><path fill="#5e9bd3" fill-rule="evenodd" d="M1454.6,960.2c0.7,0,1.4-0.6,1.4-1.4c0-0.7-0.6-1.4-1.4-1.4s-1.4,0.6-1.4,1.4    C1453.3,959.6,1453.9,960.2,1454.6,960.2z" clip-rule="evenodd"/><path fill="#5e9bd3" fill-rule="evenodd" d="M1454.1,985.7c0.7,0,1.4-0.6,1.4-1.4c0-0.7-0.6-1.4-1.4-1.4c-0.7,0-1.4,0.6-1.4,1.4    C1452.7,985.1,1453.3,985.7,1454.1,985.7z" clip-rule="evenodd"/><path fill="#5e9bd3" fill-rule="evenodd" d="M1452.9,1006c0.7,0,1.4-0.6,1.4-1.3c0-0.7-0.6-1.4-1.4-1.4c-0.7,0-1.4,0.6-1.4,1.4    C1451.5,1005.4,1452.2,1006,1452.9,1006z" clip-rule="evenodd"/><path fill="#5e9bd3" fill-rule="evenodd" d="M1491.6,1014c18.1-20.6,24.5-53.5,19.2-98.4l9.2,18.5c2.2,18.6-4.5,45.1-20.3,79.4    C1497,1013.7,1494.3,1013.8,1491.6,1014z" clip-rule="evenodd"/><path fill="#5e9bd3" fill-rule="evenodd" d="M1402.2,933.3c-3.1,10.8-4.3,19.9-3.6,27.2c-11.7,10.4-21.3,19.8-28.9,28.1    C1375.4,978.4,1386.2,960,1402.2,933.3z" clip-rule="evenodd"/><path fill="#fff" fill-rule="evenodd" d="M1485.6,863.3c20.7,2.3,60.5,13.4,69.7,29.2c35.1,47.8,53.2,76.3,51.6,84.8c-5.4,28-22.7,56.9-54.1,82.6    c-10.2-7.2-18.5-14.1-20.1-15.8c19.2-35.4,31-57,35.5-64.8c-24.2-21.3-39.4-35.5-45.7-42.7c0,69.9-0.1,104.9-0.1,104.9    c10.8,30.2,13,73.4,6.7,129.4c-45.5-2.1-68.2-3.1-68.2-3.1c4.2-168,6.4-258.3,6.4-270.8C1465.8,890.1,1478.3,885.7,1485.6,863.3z" clip-rule="evenodd"/><path fill="#fff" fill-rule="evenodd" d="M1367.9,990.6c61.2-49.5,73-85.4,32.7-104.8c-30.4,37.4-48.2,60-50.5,64.9c-69.2,14.9-103.8,20.9-103.8,20.9    c5,11.2,8.3,22.5,8.3,25.2C1265.9,1001.7,1337.9,1001.6,1367.9,990.6z" clip-rule="evenodd"/><path fill="#d2deec" fill-rule="evenodd" d="M1367.5,990.7c1.9-3.3,6.5-6.6,9.5-11.7c14.7-17,11.2-20.7,18.1-32.2c-1.2,6.4-1.9,16.1-1.4,21    C1382.3,979.5,1375.6,984,1367.5,990.7z" clip-rule="evenodd"/><path fill="#d2deec" fill-rule="evenodd" d="M1513.4,978.8c-2.2-20.1,0-38.2-2.1-58.5c2.2,4.4,5,8.8,8.4,13.2l0.3,0.5c0-0.1,0-0.1,0-0.2    c0.8,1,1.6,2.1,2.4,3.1l0,98.6C1519.4,1024.5,1516.4,1005.6,1513.4,978.8z" clip-rule="evenodd"/><path fill="#f9af79" fill-rule="evenodd" d="M1522.3,1041.5c3.6,2.3,6.1,8.2,8.7,11c1.4-2,2.8-4,4.2-6c6.4,1.1,11.3,4.5,14.8,10.7    c-4.6,4.4-9.5,8.9-14.7,13.6c-1.8,1.2-3.6,1.8-5.6,1.8c-5.6-0.1-12.4-5-21.4-14.8c-7-4.5-14.3-3.1-16-5.6c0.2-5.7,1.2-8,2.8-9.4    c11.5-9.6,18.3-5.5,25.5-1.2C1521.2,1041.3,1521.8,1041.2,1522.3,1041.5z" clip-rule="evenodd"/><path fill="#a4ccec" fill-rule="evenodd" d="M1423.1,898.2c-4,23.6-1.4,40.8,0.8,55.4v0c2.3,15.3,4.2,27.9-2.7,42.2c-5.2,10.8-13.9,17-21.9,22.8    c-13.1,9.3-24.7,17.6-20.1,41.5c0.1,0.7,0.3,1.3,0.5,2c1.3,4.2,3.3,9.1,5.5,13.1c2.5,4.3,6.8,9.8,10.4,14l0.9-5.4    c-3.4-4.1-5.1-6.8-7.4-10.8c-1.8-3.2-3.4-6.9-4.6-10.3c-0.5-1.5-0.9-2.6-1.1-4.2c-3.6-20.5,6.8-27.9,18.4-36.2    c8.5-6.1,17.6-12.6,23.3-24.5c7.5-15.6,5.5-28.7,3.1-44.8h0c-2.2-14.4-4.7-31.1-0.8-54L1423.1,898.2z" clip-rule="evenodd"/><path fill="#4189c9" fill-rule="evenodd" d="M1426.3,903.1c1.2-10.8,3.2-17.6,6.3-24.6c3.6-8.1,8.4-13.5,14.5-16.2c0.3-0.2,0.9-0.5,1.5-0.8    c0.3-0.2,1.4-0.1,1.5-0.4c0.7-1.2,0.6-3.7,0.6-4.3c-1.2-0.1-4.5,0.7-5.6,1.2c-7.2,3.3-12.8,9.5-16.9,18.6    c-3.4,7.6-5.3,13.6-6.6,25.2c-0.1,0.5,0,0.4,0.3,0.8l3.6,1.3C1426.2,903.6,1426.2,903.8,1426.3,903.1z" clip-rule="evenodd"/><path fill="#4189c9" fill-rule="evenodd" d="M1503.1,923.3c1.3-12.7,1-23.2-0.9-31.5c-2-8.6-5.9-14.7-11.3-18.6c0,0-1.8-5.7-1.2-5.6    c1.6,0.3,3.5,1.1,4.2,1.6c6.4,4.6,10.7,11.8,13,21.5c2.1,9.1,2.4,20.5,0.8,34.2c8.8,5.3,12.3,13.3,10.7,24.1    c-1.6,10.5-8.4,23.7-20.3,39.4c0.1,0.4,0.2,0.8,0.2,1.2c0,2.3-1.8,4.1-4.1,4.1c-2.3,0-4.1-1.8-4.1-4.1c0-2.3,1.8-4.1,4.1-4.1h0.1    c11.4-15.2,17.9-27.6,19.4-37.3c1.4-9.1-1.7-15.7-9.4-19.9c-2.8-0.7-5.3-1-7.7-1h0c-5.4,0-9.9,1.8-13.5,5.4    c-3.7,3.7-6.6,9.5-8.5,17.1c-2,7.9-3,17.9-3,29.8c1,0.7,1.7,2,1.7,3.3c0,2.3-1.8,4.1-4.1,4.1c-2.3,0-4.1-1.8-4.1-4.1    c0-1.4,0.7-2.6,1.7-3.3c0-12.4,1-22.7,3.1-30.9c2.1-8.5,5.4-15,9.7-19.3c4.5-4.5,10.1-6.8,16.9-6.8h0    C1498.7,922.7,1500.8,922.9,1503.1,923.3z" clip-rule="evenodd"/><path fill="#263c84" fill-rule="evenodd" d="M1516,811.7c-0.1,10-3.2,29.3-4,41c-0.8,12.6,0,31.2-1.3,43.8l-13.3,7.2c0.1-4.6,0.4-8.6,0.2-12.4    c0,1.4-0.3,7-0.7,12.6l-15,6.6c4.7-32.8,2.8-41.2,5.2-80.8C1486.8,827.1,1516,811.7,1516,811.7z" clip-rule="evenodd"/><g><path fill="#a4ccec" fill-rule="evenodd" d="M523.7,973.4h647.5c8.4,0,15.5,6.9,15.3,15.2l-5.8,399.4c-0.1,8.4-6.9,15.2-15.3,15.2H529.5    c-8.4,0-15.2-6.9-15.3-15.2l-5.8-399.4C508.2,980.3,515.2,973.4,523.7,973.4z" clip-rule="evenodd"/><polygon fill="#fff" fill-rule="evenodd" points="528.6 993.6 534.3 1383 1160.5 1383 1166.1 993.6" clip-rule="evenodd"/><polygon fill="#eef8fd" fill-rule="evenodd" points="542.4 1007.2 547.7 1369.5 1147.1 1369.5 1152.4 1007.2" clip-rule="evenodd"/><polygon fill="#a4ccec" fill-rule="evenodd" points="1151.7 1053 543.1 1053 542.4 1007.2 1152.4 1007.2" clip-rule="evenodd"/><path fill="#fff" fill-rule="evenodd" d="M572.9,1017.1h317.2c7.1,0,13,5.8,13,13l0,0c0,7.1-5.8,13-13,13H572.9c-7.1,0-13-5.8-13-13l0,0    C559.9,1023,565.7,1017.1,572.9,1017.1z" clip-rule="evenodd"/><path fill="#fff" fill-rule="evenodd" d="M1113.6,1017.1c7.2,0,13,5.8,13,13c0,7.2-5.8,13-13,13c-7.2,0-13-5.8-13-13    C1100.6,1022.9,1106.4,1017.1,1113.6,1017.1z" clip-rule="evenodd"/><polygon fill="#d1e4f5" fill-rule="evenodd" points="390.6 1500.4 601.4 1500.4 1093.4 1500.4 1304.2 1500.4 1184.2 1403.3 1093.4 1403.3 601.4 1403.3 510.6 1403.3" clip-rule="evenodd"/><path fill="#a4ccec" fill-rule="evenodd" d="M390.6,1500.4h913.7c0,8.2-5.9,15.6-13.6,17.2H404.2C396.4,1516,390.6,1508.7,390.6,1500.4z" clip-rule="evenodd"/><polygon fill="#fff" fill-rule="evenodd" points="725.9 1464.6 756.7 1464.6 938.1 1464.6 968.9 1464.6 976.9 1479.3 938.1 1479.3 756.7 1479.3 717.9 1479.3" clip-rule="evenodd"/></g><g><rect width="174.5" height="99.7" x="625.9" y="1060.3" fill="#fff" fill-rule="evenodd" clip-rule="evenodd"/><path fill="#a4ccec" fill-rule="evenodd" d="M625.9,1059.4L625.9,1059.4h174.5c0.5,0,1,0.4,1,1v0.1v99.6c0,0.5-0.4,1-1,1h-0.1H625.9c-0.5,0-1-0.4-1-1    v-0.1v-99.6C625,1059.8,625.4,1059.4,625.9,1059.4L625.9,1059.4z M799.4,1061.3H626.9v97.7h172.5V1061.3z" clip-rule="evenodd"/><rect width="224.3" height="62.3" x="625.9" y="1182.8" fill="#fff" fill-rule="evenodd" clip-rule="evenodd"/><path fill="#a4ccec" fill-rule="evenodd" d="M625.9,1181.8L625.9,1181.8h224.3c0.5,0,1,0.4,1,1v0v62.3c0,0.5-0.4,1-1,1h0H625.9c-0.5,0-1-0.4-1-1v-0.1    v-62.3C625,1182.3,625.4,1181.8,625.9,1181.8L625.9,1181.8z M849.3,1183.8H626.9v60.4h222.4V1183.8z" clip-rule="evenodd"/><rect width="223.5" height="91.1" x="625.9" y="1267.9" fill="#fff" fill-rule="evenodd" clip-rule="evenodd"/><path fill="#a4ccec" fill-rule="evenodd" d="M625.9,1266.9L625.9,1266.9h223.5c0.5,0,1,0.4,1,1v0.1v91.1c0,0.5-0.4,1-1,1h-0.1H625.9c-0.5,0-1-0.4-1-1    v-0.1v-91.1C625,1267.3,625.4,1266.9,625.9,1266.9L625.9,1266.9z M848.5,1268.9H626.9v89.2h221.6V1268.9z" clip-rule="evenodd"/><rect width="124.6" height="169" x="935.8" y="1058.5" fill="#fff" fill-rule="evenodd" clip-rule="evenodd"/><path fill="#a4ccec" fill-rule="evenodd" d="M935.8,1057.5L935.8,1057.5h124.6c0.5,0,1,0.4,1,1v0.1v169c0,0.5-0.4,1-1,1h-0.1H935.8c-0.5,0-1-0.4-1-1    v-0.1v-169C934.8,1058,935.2,1057.5,935.8,1057.5L935.8,1057.5z M1059.4,1059.5H936.7v167.1h122.7V1059.5z" clip-rule="evenodd"/><rect width="142" height="113.3" x="926.9" y="1243.9" fill="#fff" fill-rule="evenodd" clip-rule="evenodd"/><path fill="#a4ccec" fill-rule="evenodd" d="M926.9,1242.9L926.9,1242.9h142c0.5,0,1,0.4,1,1v0.1v113.2c0,0.5-0.4,1-1,1h0H926.9c-0.5,0-1-0.4-1-1v-0.1    v-113.2C925.9,1243.3,926.4,1242.9,926.9,1242.9L926.9,1242.9z M1067.9,1244.9h-140v111.3h140V1244.9z" clip-rule="evenodd"/><path fill="none" stroke="#f5916f" stroke-linecap="round" stroke-linejoin="round" stroke-miterlimit="2.613" stroke-width=".216" d="M626.8,1107.8c4.1-0.8,11.4-1.6,12,2.6c4.1,29.2,4.8-19.3,7.4-17.6c1.7,2.8-1.7,28.8,3.3,17    c7.3-17.3,5.2,13.3,8.4,8c1-1.7,4.4-18.7,4.6-15.9c1.3,13.4-1.4,11.6,17.7,11.3c1.3,0,2.9-47.7,4.4-25c0,4.4-0.6,43.1,1.1,38.5    c1.2-3.1,3.4-11.7,3.4-15.1c0,7.3,0.9,18.3,5,4.9c7.5-24.6,3.9-54.9,6.9-12.5c0.3,3.6,1.5,24.9,4.9,10c4.5-19.5,3.7,18.6,7.9,5.9    c1.8-5.7,1.8-54.2,3.8-36.4c1.2,10.4,0.1,21.9,4.1,31.3c0.6,1.3,20.6,1,20.6-0.9c0-47.8,7.2,20.7,6.8,25    c8.9,1.5,2.8-81.7,10.1-30.3c8.2,57.9,8.7-23.5,8.2-36.6c-0.4-10.1,6.2,38.7,6.8,39.7c1.6,2.6-0.3,15.7,4.8-0.8    c5.9-19,1.9,6,7.1,4.8c3-0.7,10.5-0.8,13.9-0.8" clip-rule="evenodd"/><path fill="#f5916f" fill-rule="evenodd" d="M671.4,1234.7h-5.1v-32.5c-1.2,1.2-2.8,2.4-4.8,3.5c-2,1.2-3.8,2.1-5.4,2.6v-4.9c2.9-1.3,5.3-3,7.5-4.9    c2.1-1.9,3.7-3.7,4.5-5.5h3.3V1234.7L671.4,1234.7z M699.3,1234.7h-5.1v-32.5c-1.2,1.2-2.8,2.4-4.8,3.5c-2,1.2-3.8,2.1-5.4,2.6    v-4.9c2.9-1.3,5.3-3,7.5-4.9c2.1-1.9,3.7-3.7,4.5-5.5h3.3V1234.7L699.3,1234.7z M712.5,1214.2c0-4.9,0.5-8.9,1.5-11.9    c1-3,2.5-5.3,4.5-6.9c2-1.6,4.5-2.4,7.5-2.4c2.2,0,4.2,0.4,5.9,1.3c1.7,0.9,3.1,2.2,4.2,3.9c1.1,1.7,1.9,3.7,2.6,6.2    c0.6,2.4,0.9,5.7,0.9,9.8c0,4.9-0.5,8.8-1.5,11.8c-1,3-2.5,5.3-4.5,6.9c-2,1.6-4.5,2.4-7.5,2.4c-4,0-7.1-1.4-9.4-4.3    C713.8,1227.7,712.5,1222,712.5,1214.2L712.5,1214.2z M717.7,1214.2c0,6.8,0.8,11.4,2.4,13.6c1.6,2.3,3.6,3.4,5.9,3.4    c2.3,0,4.3-1.1,5.9-3.4c1.6-2.3,2.4-6.8,2.4-13.6c0-6.8-0.8-11.4-2.4-13.6c-1.6-2.3-3.6-3.4-6-3.4c-2.3,0-4.2,1-5.6,3    C718.5,1202.8,717.7,1207.4,717.7,1214.2L717.7,1214.2z M742.3,1235.4l12.1-42.9h4.1l-12.1,42.9H742.3L742.3,1235.4z     M768.7,1212.2c-2.1-0.8-3.7-1.9-4.7-3.3c-1-1.4-1.5-3.2-1.5-5.2c0-3,1.1-5.6,3.2-7.6c2.2-2.1,5.1-3.1,8.7-3.1    c3.6,0,6.5,1.1,8.7,3.2c2.2,2.1,3.3,4.7,3.3,7.7c0,1.9-0.5,3.6-1.5,5c-1,1.4-2.5,2.5-4.6,3.3c2.5,0.8,4.5,2.2,5.8,4    c1.3,1.8,2,4.1,2,6.6c0,3.5-1.3,6.5-3.8,8.9c-2.5,2.4-5.8,3.6-9.9,3.6c-4.1,0-7.4-1.2-9.9-3.6c-2.5-2.4-3.8-5.4-3.8-9.1    c0-2.7,0.7-5,2.1-6.8C764.2,1214.1,766.1,1212.9,768.7,1212.2L768.7,1212.2z M767.7,1203.5c0,2,0.6,3.6,1.9,4.8    c1.3,1.2,2.9,1.9,4.9,1.9c2,0,3.6-0.6,4.8-1.9c1.2-1.2,1.9-2.8,1.9-4.6c0-1.9-0.6-3.4-1.9-4.7c-1.3-1.3-2.9-1.9-4.8-1.9    c-2,0-3.6,0.6-4.9,1.9C768.3,1200.3,767.7,1201.8,767.7,1203.5L767.7,1203.5z M766,1222.7c0,1.5,0.3,2.9,1,4.2    c0.7,1.4,1.7,2.4,3.1,3.1c1.4,0.7,2.8,1.1,4.4,1.1c2.5,0,4.5-0.8,6-2.3c1.6-1.6,2.4-3.6,2.4-6c0-2.5-0.8-4.5-2.4-6.1    c-1.6-1.6-3.7-2.4-6.1-2.4c-2.4,0-4.4,0.8-6,2.4C766.8,1218.4,766,1220.4,766,1222.7L766,1222.7z M793.1,1214.2    c0-4.9,0.5-8.9,1.5-11.9c1-3,2.5-5.3,4.5-6.9c2-1.6,4.5-2.4,7.5-2.4c2.2,0,4.2,0.4,5.9,1.3c1.7,0.9,3.1,2.2,4.2,3.9    c1.1,1.7,1.9,3.7,2.6,6.2c0.6,2.4,0.9,5.7,0.9,9.8c0,4.9-0.5,8.8-1.5,11.8c-1,3-2.5,5.3-4.5,6.9c-2,1.6-4.5,2.4-7.5,2.4    c-4,0-7.1-1.4-9.4-4.3C794.4,1227.7,793.1,1222,793.1,1214.2L793.1,1214.2z M798.3,1214.2c0,6.8,0.8,11.4,2.4,13.6    c1.6,2.3,3.6,3.4,5.9,3.4c2.3,0,4.3-1.1,5.9-3.4c1.6-2.3,2.4-6.8,2.4-13.6c0-6.8-0.8-11.4-2.4-13.6c-1.6-2.3-3.6-3.4-6-3.4    c-2.3,0-4.2,1-5.6,3C799.2,1202.8,798.3,1207.4,798.3,1214.2z" clip-rule="evenodd"/><path fill="#f48d80" fill-rule="evenodd" d="M827.2,1312.3L827.2,1312.3c0,0.5-0.4,0.9-0.9,0.9l-111.3,0c-0.5,0-0.9-0.4-0.9-0.9l0,0    c0-0.5,0.4-0.9,0.9-0.9l111.3,0C826.8,1311.4,827.2,1311.8,827.2,1312.3z" clip-rule="evenodd"/><path fill="#f5916f" fill-rule="evenodd" d="M669.4,1299.8c0,0,3.8-6.3,11.5-6.4c6.9-0.1,11.7,6.4,11.7,13.9c0.1,8.7-6.3,19.1-23,28.2    c-16.8-8.8-23.4-19.1-23.5-27.8c-0.1-7.5,4.6-14,11.5-14.1C665.5,1293.5,669.4,1299.8,669.4,1299.8z" clip-rule="evenodd"/><path fill="#f5916f" fill-rule="evenodd" d="M722.4,1286.1L722.4,1286.1c1,0,1.8,0.8,1.8,1.8v42.9c0,1-0.8,1.8-1.8,1.8h0c-1,0-1.8-0.8-1.8-1.8v-42.9    C720.6,1286.9,721.4,1286.1,722.4,1286.1z" clip-rule="evenodd"/><path fill="#f5916f" fill-rule="evenodd" d="M744.2,1303.8L744.2,1303.8c1,0,1.8,0.8,1.8,1.8v18.7c0,1-0.8,1.8-1.8,1.8h0c-1,0-1.8-0.8-1.8-1.8v-18.7    C742.4,1304.6,743.2,1303.8,744.2,1303.8z" clip-rule="evenodd"/><path fill="#f5916f" fill-rule="evenodd" d="M766,1292.2L766,1292.2c1,0,1.8,0.8,1.8,1.8v27.8c0,1-0.8,1.8-1.8,1.8h0c-1,0-1.8-0.8-1.8-1.8V1294    C764.2,1293,765,1292.2,766,1292.2z" clip-rule="evenodd"/><path fill="#f5916f" fill-rule="evenodd" d="M787.8,1302.1L787.8,1302.1c1,0,1.8,0.8,1.8,1.8v26.9c0,1-0.8,1.8-1.8,1.8h0c-1,0-1.8-0.8-1.8-1.8v-26.9    C786,1302.9,786.8,1302.1,787.8,1302.1z" clip-rule="evenodd"/><path fill="#f5916f" fill-rule="evenodd" d="M809.6,1286.1L809.6,1286.1c1,0,1.8,0.8,1.8,1.8v29c0,1-0.8,1.8-1.8,1.8h0c-1,0-1.8-0.8-1.8-1.8v-29    C807.9,1286.9,808.7,1286.1,809.6,1286.1z" clip-rule="evenodd"/><path fill="#a4ccec" fill-rule="evenodd" d="M956.5,1072.5h18.1c1.2,0,1.9,1,1.9,2.2l0.4,19.3c0,1.2-1.2,2.2-2.4,2.2h-18.1c-1.2,0-1.9-1-1.9-2.2     l-0.4-19.3C954.1,1073.5,955.4,1072.5,956.5,1072.5z" clip-rule="evenodd"/><path fill="#fff" fill-rule="evenodd" d="M967.6,1081.7c2.3,0.7,4,2.8,4.1,5.2l0.3,6.4h-11l-0.3-6.4c-0.1-2.4,1.4-4.5,3.6-5.2c-1.1-0.6-1.8-1.7-1.9-3     c-0.1-1.9,1.4-3.4,3.3-3.4c1.9,0,3.5,1.5,3.5,3.4C969.2,1080,968.6,1081.1,967.6,1081.7z" clip-rule="evenodd"/><path fill="#a4ccec" fill-rule="evenodd" d="M981.2,1075.3h59.7l0.1,6.6h-59.7L981.2,1075.3L981.2,1075.3z M954.9,1206.8h86.3l0.4,6.6H955L954.9,1206.8     L954.9,1206.8z M954.8,1193.7h87.1l0.1,0.8l0,5.8h-87.1L954.8,1193.7L954.8,1193.7z M954.7,1180.6h87.1l0.1,6.6h-87.1     L954.7,1180.6L954.7,1180.6z M954.6,1167.5h87.1l0.1,6.6h-87.1L954.6,1167.5L954.6,1167.5z M954.5,1154.4h87.1l0.1,6.6h-87.1     L954.5,1154.4L954.5,1154.4z M954.4,1141.2h87.1l0.1,6.6h-87.1L954.4,1141.2L954.4,1141.2z M971,1128.1h70.4l0.1,6.6h-70.4     L971,1128.1L971,1128.1z M954.1,1115h87.1l0.1,6.6h-87.1L954.1,1115L954.1,1115z M970.1,1101.9h71.1l0.1,6.6h-70.7L970.1,1101.9     L970.1,1101.9z M981.1,1089.2h59.9l0.1,6.6h-59.9L981.1,1089.2z" clip-rule="evenodd"/><path fill="#a4ccec" fill-rule="evenodd" d="M955.6,1100.5h10c0.7,0,1.1,0.5,1.1,1.2l0.2,10.7c0,0.7-0.7,1.2-1.3,1.2h-10c-0.7,0-1.1-0.5-1.1-1.2     l-0.2-10.7C954.3,1101,954.9,1100.5,955.6,1100.5z" clip-rule="evenodd"/><path fill="#a4ccec" fill-rule="evenodd" d="M955.5,1125.8h10c0.7,0,1.1,0.5,1.1,1.2l0.2,10.7c0,0.7-0.7,1.2-1.3,1.2h-10c-0.7,0-1.1-0.5-1.1-1.2     l-0.2-10.7C954.2,1126.3,954.9,1125.8,955.5,1125.8z" clip-rule="evenodd"/><path fill="#f5916f" fill-rule="evenodd" d="M956.4,1108.3c-0.3-0.4-0.2-0.9,0.2-1.2c0.4-0.3,0.9-0.2,1.2,0.1l1.5,2.1l4.5-6.4c0.3-0.4,0.8-0.5,1.2-0.3     c0.4,0.3,0.5,0.8,0.2,1.2l-5.2,7.4h0c-0.1,0.1-0.1,0.2-0.2,0.2c-0.4,0.3-0.9,0.3-1.2-0.1L956.4,1108.3z" clip-rule="evenodd"/><path fill="#f5916f" fill-rule="evenodd" d="M955.9,1134.1c-0.3-0.4-0.2-0.9,0.2-1.2s0.9-0.3,1.2,0.1l1.5,2.1l4.5-6.4c0.3-0.4,0.8-0.5,1.2-0.3     c0.4,0.3,0.5,0.8,0.2,1.2l-5.2,7.4h0c-0.1,0.1-0.1,0.1-0.2,0.2c-0.4,0.3-0.9,0.2-1.2-0.1L955.9,1134.1z" clip-rule="evenodd"/><path fill="#a4ccec" fill-rule="evenodd" d="M1029.4,1246.1c-17,11.1-16.6,16-15.6,30.1c0.3,4.3,0.7,9.6,0.7,16.1c0,6-0.8,13.1-3.3,19.2l0,0    c-2,4.8-5,9-9.4,11.6c-9.2,5.4-17.7,6.6-25.1,7.7c-10,1.5-17.7,2.6-21.2,13.8h0c-0.9,2.8,0.1,6.5,0.7,8.8h0c0.3,1,0.5,1.8,0.5,2.4    l-1.9-0.1c0-0.2-0.2-0.8-0.4-1.7l0,0c-0.7-2.5-1.8-6.5-0.7-9.9v0c3.9-12.4,12.1-13.6,22.8-15.2c7.2-1.1,15.6-2.3,24.4-7.5    c4-2.4,6.8-6.2,8.6-10.7h0c2.4-5.8,3.2-12.7,3.2-18.5c0-6.4-0.4-11.6-0.7-15.9c-1.1-15-1.5-20.1,16.4-31.8L1029.4,1246.1z" clip-rule="evenodd"/><path fill="#f5916f" fill-rule="evenodd" d="M966.1,1323.7c-1.6-10.3,7.2-20,20.1-22.8c36.5-7.9,1.7-29.9,24-35.7c19.5-5.1,30.5,51.4,4.1,65    c-6.9,3.6-14,6.2-23.4,6.2C983.3,1336.4,968.2,1337.1,966.1,1323.7z" clip-rule="evenodd"/><path fill="#a4ccec" fill-rule="evenodd" d="M965.1,1323.9c-0.8-5.4,1-10.7,4.8-15c3.7-4.3,9.4-7.5,16.1-9h0c19.5-4.2,17.6-12.5,16-20    c-1.5-6.7-2.8-12.9,8-15.7c4.7-1.2,8.8,0.7,12.2,4.7c2.7,3.2,4.9,7.6,6.4,12.7c1.5,5.1,2.3,10.8,2.3,16.6    c-0.1,13.4-4.7,26.9-16.2,32.9c-3.5,1.8-7,3.4-10.9,4.5c-3.9,1.1-8.1,1.8-12.9,1.8v0l-1.1,0    C981.6,1337.4,967.2,1337.5,965.1,1323.9L965.1,1323.9z M971.4,1310.2c-3.4,3.8-5.1,8.5-4.3,13.4v0c1.8,12,15.1,11.9,22.8,11.9h0    l1.1,0v0c4.6,0,8.6-0.6,12.3-1.7c3.7-1.1,7.2-2.6,10.6-4.4c10.7-5.5,15-18.4,15.1-31.1c0-5.6-0.8-11.1-2.2-16    c-1.4-4.9-3.5-9.1-6-12c-2.9-3.4-6.4-5.1-10.3-4.1c-8.9,2.3-7.8,7.6-6.6,13.4c1.8,8.4,3.8,17.7-17.5,22.4    C980.1,1303.2,974.9,1306.2,971.4,1310.2z" clip-rule="evenodd"/></g><g><circle cx="1189" cy="802.2" r="90.1" fill="#a4ccec" fill-rule="evenodd" clip-rule="evenodd" transform="rotate(-67.5 1188.953 802.158)"/><polygon fill="#fff" fill-rule="evenodd" points="1165.9 733 1212 733 1212 779.1 1258.1 779.1 1258.1 825.2 1212 825.2 1212 871.3 1165.9 871.3 1165.9 825.2 1119.8 825.2 1119.8 779.1 1165.9 779.1" clip-rule="evenodd"/><path fill="#a4ccec" fill-rule="evenodd" d="M1085.2,802.2c0-57.3,46.5-103.8,103.8-103.8c57.3,0,103.8,46.5,103.8,103.8c0,57.3-46.5,103.8-103.8,103.8     C1131.7,906,1085.2,859.5,1085.2,802.2L1085.2,802.2z M1189,917.4c63.7,0,115.3-51.6,115.3-115.3s-51.6-115.3-115.3-115.3     s-115.3,51.6-115.3,115.3S1125.3,917.4,1189,917.4z" clip-rule="evenodd"/><path fill="#5e9bd3" fill-rule="evenodd" d="M1164,775.2h-43.7v41.2h43.7h2.4v2.4v43.7h41.2v-43.7v-2.4h2.4h43.7v-41.2h-34.9h-8.8h-2.4v-2.4V758v-28.8    h-41.2v43.7v2.4H1164L1164,775.2z M1117.9,770.3h43.7v-43.7v-2.4h2.4h46.1h2.4v2.4V758v12.4h6.4h37.3h2.4v2.4v46.1v2.4h-2.4h-43.7    V865v2.4h-2.4H1164h-2.4V865v-43.7h-43.7h-2.4v-2.4v-46.1v-2.4H1117.9z" clip-rule="evenodd"/></g><line x1="800.4" x2="935.8" y1="1134.2" y2="1134.2" fill="none" stroke="#a4ccec" stroke-miterlimit="2.613" stroke-width=".216" clip-rule="evenodd"/><polyline fill="none" stroke="#a4ccec" stroke-miterlimit="2.613" stroke-width=".216" points="850.2 1214 902.5 1213.3 915 1176.9 935.8 1176.9" clip-rule="evenodd"/><line x1="713.2" x2="713.2" y1="1160" y2="1182.8" fill="none" stroke="#a4ccec" stroke-miterlimit="2.613" stroke-width=".216" clip-rule="evenodd"/><line x1="713.2" x2="713.2" y1="1245.2" y2="1267.9" fill="none" stroke="#a4ccec" stroke-miterlimit="2.613" stroke-width=".216" clip-rule="evenodd"/><polyline fill="none" stroke="#a4ccec" stroke-miterlimit="2.613" stroke-width=".216" points="850.2 1280.3 902.5 1280.9 915 1317.3 926.9 1317.3" clip-rule="evenodd"/></svg>